<svg width="78" height="43" viewBox="0 0 78 43" fill="none" xmlns="http://www.w3.org/2000/svg">
<circle cx="73" cy="37" r="5" fill="#4ED4E1"/>
<path d="M20.22 0.0599964C23.34 0.0599964 25.98 0.419997 28.14 1.14C30.34 1.82 32.1 2.98 33.42 4.62C34.78 6.22 35.76 8.4 36.36 11.16C36.96 13.88 37.26 17.26 37.26 21.3C37.26 25.34 36.96 28.74 36.36 31.5C35.76 34.22 34.78 36.4 33.42 38.04C32.1 39.64 30.34 40.8 28.14 41.52C25.98 42.2 23.34 42.54 20.22 42.54C17.22 42.54 14.44 42.48 11.88 42.36C9.32 42.28 6.9 42.16 4.62 42L7.74 36.24C9.34 36.32 11.18 36.4 13.26 36.48C15.34 36.52 17.66 36.54 20.22 36.54C22.54 36.54 24.36 36.1 25.68 35.22C27.04 34.3 28 32.74 28.56 30.54C29.12 28.3 29.4 25.22 29.4 21.3C29.4 17.38 29.12 14.32 28.56 12.12C28 9.88 27.04 8.3 25.68 7.38C24.36 6.46 22.54 6 20.22 6C17.74 6 15.52 6.02 13.56 6.06C11.64 6.1 9.76 6.12 7.92 6.12L4.62 0.599997C6.9 0.439999 9.3 0.319999 11.82 0.239998C14.38 0.119997 17.18 0.0599964 20.22 0.0599964ZM12.12 0.599997V42H4.62V0.599997H12.12ZM61.3252 0.599997V42H53.8252V0.599997H61.3252ZM74.1652 0.599997V6.72H40.9852V0.599997H74.1652Z" fill="#E5EAF0"/>
</svg>
