<svg width="165" height="201" viewBox="0 0 165 201" fill="none" xmlns="http://www.w3.org/2000/svg">
<path d="M70.1842 200.028C69.3588 199.897 68.7221 199.715 68.0732 199.645C63.128 199.113 58.1612 198.74 53.2386 198.05C47.8595 197.296 42.4487 196.548 37.1841 195.257C31.7873 193.935 26.4967 192.108 21.2588 190.226C15.9106 188.305 10.8868 185.611 6.53381 181.945C2.76318 178.77 -0.0214424 174.967 0.031002 169.57C0.152436 157.073 0.0696162 144.575 0.0696162 132.078C0.0696162 131.422 0.0696162 130.766 0.0696162 129.685C1.42851 131.891 2.21122 133.893 3.6088 135.271C6.15228 137.779 8.8784 140.195 11.8562 142.15C17.4993 145.855 23.7777 148.315 30.2997 149.973C36.7577 151.614 43.267 153.138 49.8328 154.245C55.793 155.249 61.8525 155.698 67.8819 156.241C71.2196 156.542 74.5843 156.598 77.9386 156.646C82.4306 156.711 86.9348 156.858 91.4144 156.614C97.3496 156.291 103.264 155.599 109.191 155.113C116.968 154.476 124.546 152.787 132.06 150.792C140.965 148.428 149.528 145.184 157.001 139.683C160.3 137.256 163.127 134.219 164.695 130.076C164.776 130.435 164.926 130.794 164.926 131.154C164.938 144.693 164.995 158.232 164.892 171.77C164.868 174.875 162.946 177.36 160.948 179.532C156.486 184.38 150.774 187.458 144.746 189.811C139.451 191.877 134.011 193.633 128.525 195.124C124.215 196.296 119.765 197.057 115.329 197.636C108.75 198.496 102.128 199.034 95.4599 199.868C87.0526 200.028 78.71 200.028 70.1842 200.028Z" fill="#4ED4E1"/>
<path d="M90.6475 98.8418C96.5678 98.323 102.323 97.982 108.025 97.2385C114.484 96.3964 120.976 95.5329 127.305 94.0466C133.011 92.7067 138.566 90.6501 144.095 88.6539C148.841 86.9406 153.268 84.5638 157.261 81.3876C160.494 78.8154 163.291 75.9946 164.491 71.3049C164.749 72.1649 164.923 72.4745 164.924 72.7844C164.937 86.3921 164.964 99.9999 164.911 113.607C164.901 116.233 163.514 118.467 161.895 120.366C158.559 124.279 154.561 127.414 149.781 129.444C145.75 131.156 141.791 133.094 137.648 134.479C130.724 136.795 123.643 138.599 116.363 139.47C110.801 140.136 105.25 141.038 99.6673 141.365C91.2152 141.86 82.7362 142.214 74.2744 142.119C68.0171 142.048 61.7424 141.377 55.5224 140.599C43.1239 139.047 30.9428 136.415 19.3949 131.521C13.4856 129.016 7.82663 125.933 3.56887 120.884C1.44611 118.366 0.0118541 115.631 0.0354429 112.153C0.121123 99.5229 0.0692404 86.8914 0.0692404 74.2603C0.0692404 73.6028 0.0692404 72.9453 0.0692404 72.4407C1.96857 74.8853 3.61064 77.4087 5.65699 79.5448C9.57264 83.6322 14.5755 86.2101 19.7517 88.2184C25.4571 90.432 31.3276 92.2698 37.2233 93.9257C41.3409 95.0822 45.5964 95.8317 49.836 96.4493C55.5072 97.2755 61.2077 98.0683 66.9227 98.3836C74.2982 98.7906 81.7006 98.7119 89.0915 98.8407C89.5471 98.8487 90.003 98.8418 90.6475 98.8418Z" fill="#4ED4E1"/>
<path d="M95.212 0C95.9073 0.130226 96.4125 0.32073 96.9329 0.38155C103.7 1.17248 110.476 1.88684 117.236 2.7372C125.318 3.7539 133.158 5.83913 140.795 8.61656C148.188 11.3051 155.323 14.5847 160.848 20.4055C163.396 23.0894 165.098 26.2307 164.996 30.2739C164.793 38.2765 164.804 46.2908 164.982 54.2946C165.103 59.729 162.274 63.545 158.489 66.6719C152.158 71.9015 144.703 75.1872 136.879 77.4177C130.36 79.2763 123.706 80.7284 117.04 81.9822C111.863 82.9561 106.592 83.6606 101.334 83.9286C91.5791 84.426 81.799 84.8123 72.0375 84.672C65.6807 84.5806 59.3374 83.487 52.9899 82.8247C43.4223 81.8263 34.0893 79.6152 25.0465 76.4738C17.6107 73.8906 10.3144 70.6972 4.66794 64.8961C1.74228 61.8903 -0.124987 58.3851 0.00652346 53.8618C0.233471 46.056 0.169009 38.2371 0.0351406 30.4269C-0.0574026 25.0278 2.72381 21.1332 6.56993 18.0766C14.8313 11.5109 24.5071 7.852 34.6921 5.48097C40.0867 4.22512 45.4894 2.96053 50.9434 2.01809C54.8964 1.33501 58.9376 1.15002 62.9438 0.790824C65.2485 0.584182 67.5618 0.472939 69.9361 0.159377C78.3436 1.16431e-08 86.6862 0 95.212 0Z" fill="#4ED4E1"/>
</svg>
