<svg width="182" height="220" viewBox="0 0 182 220" fill="none" xmlns="http://www.w3.org/2000/svg">
<path d="M77.1909 220C76.2831 219.857 75.5828 219.656 74.8691 219.579C69.4301 218.994 63.9674 218.584 58.5533 217.825C52.6371 216.995 46.6861 216.173 40.8958 214.754C34.9601 213.299 29.1413 211.29 23.3804 209.22C17.4981 207.107 11.9727 204.144 7.18513 200.112C3.03801 196.62 -0.0246529 192.437 0.0330279 186.501C0.166587 172.757 0.0754977 159.011 0.0754977 145.265C0.0754977 144.544 0.0754977 143.823 0.0754977 142.634C1.57007 145.06 2.43094 147.262 3.96806 148.778C6.7655 151.536 9.76382 154.193 13.039 156.343C19.2455 160.418 26.1508 163.124 33.324 164.947C40.4268 166.752 47.586 168.429 54.8075 169.646C61.3627 170.75 68.0273 171.245 74.6587 171.842C78.3297 172.172 82.0303 172.234 85.7195 172.287C90.66 172.358 95.614 172.52 100.541 172.252C107.069 171.897 113.574 171.135 120.093 170.601C128.646 169.9 136.98 168.043 145.245 165.848C155.039 163.248 164.457 159.681 172.677 153.631C176.304 150.961 179.414 147.62 181.139 143.063C181.227 143.459 181.392 143.854 181.392 144.249C181.406 159.14 181.468 174.031 181.355 188.921C181.329 192.336 179.214 195.069 177.017 197.458C172.11 202.79 165.827 206.175 159.197 208.763C153.374 211.036 147.39 212.967 141.357 214.607C136.617 215.896 131.722 216.732 126.843 217.37C119.607 218.315 112.324 218.907 104.99 219.825C95.7436 220 86.568 220 77.1909 220Z" fill="#4ED4E1"/>
<path d="M99.6969 108.711C106.208 108.14 112.538 107.765 118.809 106.948C125.914 106.021 133.054 105.072 140.015 103.437C146.29 101.963 152.4 99.7014 158.481 97.5058C163.701 95.6215 168.57 93.0074 172.962 89.514C176.518 86.6851 179.594 83.5826 180.913 78.4247C181.198 79.3705 181.389 79.711 181.39 80.0518C181.405 95.0182 181.434 109.985 181.375 124.951C181.364 127.839 179.84 130.296 178.058 132.385C174.389 136.688 169.992 140.136 164.735 142.369C160.301 144.252 155.947 146.383 151.391 147.907C143.775 150.454 135.987 152.438 127.98 153.396C121.862 154.129 115.758 155.121 109.617 155.48C100.321 156.025 90.9957 156.414 81.689 156.309C74.8069 156.231 67.9057 155.493 61.0646 154.637C47.4282 152.931 34.0308 150.036 21.3299 144.653C14.8305 141.898 8.60654 138.508 3.92366 132.954C1.58895 130.185 0.0114806 127.176 0.0374247 123.352C0.13166 109.46 0.0745968 95.5674 0.0745968 81.6751C0.0745968 80.952 0.0745968 80.2288 0.0745968 79.6738C2.16357 82.3625 3.9696 85.1378 6.22027 87.4872C10.5269 91.9828 16.0292 94.8181 21.7224 97.0269C27.9974 99.4616 34.4541 101.483 40.9384 103.304C45.4672 104.576 50.1476 105.4 54.8105 106.08C61.048 106.988 67.3176 107.86 73.6033 108.207C81.7153 108.655 89.8568 108.568 97.9856 108.71C98.4867 108.719 98.9881 108.711 99.6969 108.711Z" fill="#4ED4E1"/>
<path d="M104.719 0C105.484 0.143229 106.039 0.352754 106.611 0.419647C114.054 1.28955 121.507 2.07524 128.942 3.0105C137.83 4.12871 146.453 6.42216 154.853 9.4769C162.985 12.4339 170.832 16.041 176.909 22.4429C179.711 25.3948 181.583 28.8498 181.47 33.2966C181.248 42.0984 181.259 50.9129 181.455 59.7159C181.588 65.6928 178.477 69.8898 174.314 73.329C167.351 79.0808 159.152 82.6945 150.547 85.1478C143.377 87.1919 136.057 88.789 128.726 90.168C123.032 91.2391 117.235 92.0139 111.452 92.3088C100.723 92.8557 89.9665 93.2807 79.2303 93.1263C72.2388 93.0258 65.2621 91.823 58.2809 91.0945C47.7579 89.9965 37.493 87.5646 27.5473 84.1095C19.3691 81.2684 11.3443 77.7562 5.13403 71.3758C1.91624 68.0699 -0.137467 64.2148 0.00717482 59.2398C0.256783 50.6546 0.185884 42.0549 0.0386494 33.465C-0.0631342 27.5268 2.99578 23.2433 7.22592 19.8815C16.3121 12.6603 26.9541 8.636 38.1561 6.02823C44.0893 4.64699 50.0314 3.25613 56.03 2.21959C60.3777 1.46831 64.8224 1.26484 69.2286 0.869786C71.7634 0.642511 74.3077 0.520161 76.9191 0.17529C86.1661 1.28057e-08 95.3417 0 104.719 0Z" fill="#4ED4E1"/>
</svg>
