<svg width="185" height="225" viewBox="0 0 185 225" fill="none" xmlns="http://www.w3.org/2000/svg">
<path d="M40.645 175.05C41.965 175.05 42.625 175.728 42.625 177.085L44.22 213H39.38L38.005 179.065H36.85L28.38 207.06C28.0867 208.16 27.39 208.71 26.29 208.71H21.945C20.8083 208.71 20.075 208.16 19.745 207.06L11.275 179.065H10.175L8.855 213H4.015L5.5 177.085C5.57333 175.728 6.25167 175.05 7.535 175.05H13.035C14.0617 175.05 14.74 175.6 15.07 176.7L22.165 199.855C22.4583 200.698 22.6967 201.542 22.88 202.385C23.1 203.228 23.3383 204.09 23.595 204.97H24.585C24.8417 204.09 25.08 203.228 25.3 202.385C25.52 201.542 25.7583 200.662 26.015 199.745L33.11 176.7C33.4033 175.6 34.1 175.05 35.2 175.05H40.645ZM76.2824 186.215L65.5574 214.485C65.1174 215.658 64.5674 216.813 63.9074 217.95C63.2474 219.087 62.4408 220.113 61.4874 221.03C60.5708 221.983 59.4708 222.753 58.1874 223.34C56.9408 223.927 55.4924 224.257 53.8424 224.33L53.4024 221.25C55.5658 220.553 57.2341 219.618 58.4074 218.445C59.5808 217.272 60.5158 215.842 61.2124 214.155L62.5324 210.965C62.8258 210.232 63.1191 209.425 63.4124 208.545C63.7058 207.665 63.9808 206.877 64.2374 206.18L71.2224 186.215H76.2824ZM54.2274 186.215L61.3224 206.18C61.5058 206.73 61.6891 207.28 61.8724 207.83C62.0558 208.343 62.2024 208.875 62.3124 209.425H63.5774L62.0374 213H60.6074C60.2408 213 59.8924 212.89 59.5624 212.67C59.2691 212.45 59.0674 212.157 58.9574 211.79L49.2224 186.215H54.2274ZM103.699 174.39C105.496 174.427 107.348 174.518 109.254 174.665C111.161 174.812 113.068 175.087 114.974 175.49L114.644 179.01C113.068 178.937 111.326 178.882 109.419 178.845C107.513 178.772 105.679 178.735 103.919 178.735C102.563 178.735 101.389 178.79 100.399 178.9C99.4462 178.973 98.6578 179.193 98.0345 179.56C97.4112 179.89 96.9528 180.458 96.6595 181.265C96.4028 182.035 96.2745 183.117 96.2745 184.51C96.2745 186.6 96.6412 188.067 97.3745 188.91C98.1445 189.717 99.3728 190.322 101.059 190.725L108.759 192.65C111.693 193.347 113.691 194.575 114.754 196.335C115.854 198.058 116.404 200.387 116.404 203.32C116.404 205.52 116.148 207.298 115.634 208.655C115.158 210.012 114.406 211.057 113.379 211.79C112.353 212.487 111.033 212.963 109.419 213.22C107.806 213.513 105.899 213.66 103.699 213.66C102.453 213.66 100.821 213.605 98.8045 213.495C96.8245 213.385 94.5328 213.092 91.9295 212.615L92.2595 209.04C94.4228 209.113 96.1645 209.187 97.4845 209.26C98.8045 209.297 99.9412 209.315 100.894 209.315C101.848 209.315 102.838 209.315 103.864 209.315C105.808 209.315 107.329 209.168 108.429 208.875C109.566 208.582 110.354 207.995 110.794 207.115C111.271 206.235 111.509 204.933 111.509 203.21C111.509 201.743 111.344 200.607 111.014 199.8C110.684 198.993 110.153 198.388 109.419 197.985C108.723 197.545 107.824 197.197 106.724 196.94L98.8595 194.96C96.1095 194.263 94.1662 193.053 93.0295 191.33C91.9295 189.607 91.3795 187.297 91.3795 184.4C91.3795 182.2 91.6178 180.44 92.0945 179.12C92.6078 177.763 93.3595 176.755 94.3495 176.095C95.3762 175.398 96.6595 174.94 98.1995 174.72C99.7395 174.5 101.573 174.39 103.699 174.39ZM137.61 174.335C140.36 174.335 142.688 174.665 144.595 175.325C146.538 175.985 148.078 177.085 149.215 178.625C150.388 180.128 151.231 182.145 151.745 184.675C152.295 187.205 152.57 190.322 152.57 194.025C152.57 197.728 152.295 200.845 151.745 203.375C151.231 205.905 150.388 207.94 149.215 209.48C148.078 210.983 146.538 212.065 144.595 212.725C142.688 213.385 140.36 213.715 137.61 213.715C134.823 213.715 132.476 213.385 130.57 212.725C128.663 212.065 127.123 210.983 125.95 209.48C124.776 207.94 123.915 205.905 123.365 203.375C122.851 200.845 122.595 197.728 122.595 194.025C122.595 190.322 122.851 187.205 123.365 184.675C123.915 182.145 124.776 180.128 125.95 178.625C127.123 177.085 128.663 175.985 130.57 175.325C132.476 174.665 134.823 174.335 137.61 174.335ZM135.355 215.365C137.518 216.282 139.81 217.052 142.23 217.675C144.65 218.298 147.216 218.812 149.93 219.215L148.39 224.055C145.53 223.468 142.908 222.643 140.525 221.58C138.141 220.553 135.96 219.453 133.98 218.28L135.355 215.365ZM137.61 178.68C135.116 178.68 133.136 179.157 131.67 180.11C130.24 181.063 129.213 182.658 128.59 184.895C128.003 187.095 127.71 190.138 127.71 194.025C127.71 197.875 128.003 200.918 128.59 203.155C129.213 205.392 130.24 206.987 131.67 207.94C133.136 208.893 135.116 209.37 137.61 209.37C140.103 209.37 142.065 208.893 143.495 207.94C144.925 206.987 145.951 205.392 146.575 203.155C147.198 200.918 147.51 197.875 147.51 194.025C147.51 190.138 147.198 187.095 146.575 184.895C145.951 182.658 144.925 181.063 143.495 180.11C142.065 179.157 140.103 178.68 137.61 178.68ZM165.437 175.05V205.3C165.437 206.547 165.73 207.463 166.317 208.05C166.94 208.637 167.875 208.93 169.122 208.93H182.817L183.037 212.67C180.653 212.853 178.215 212.963 175.722 213C173.265 213.037 170.808 213.055 168.352 213.055C165.565 213.055 163.585 212.377 162.412 211.02C161.238 209.663 160.652 207.958 160.652 205.905V175.05H165.437Z" fill="#4ED4E1"/>
<path d="M81.8934 165C81.2126 164.893 80.6873 164.742 80.1521 164.685C76.0728 164.246 71.9758 163.938 67.9152 163.369C63.4781 162.747 59.0148 162.13 54.6721 161.065C50.2203 159.974 45.8562 158.467 41.5355 156.915C37.1238 155.33 32.9798 153.108 29.3891 150.084C26.2787 147.465 23.9818 144.328 24.025 139.876C24.1252 129.568 24.0569 119.258 24.0569 108.949C24.0569 108.408 24.0569 107.867 24.0569 106.976C25.1778 108.795 25.8234 110.446 26.9763 111.583C29.0744 113.652 31.3231 115.645 33.7795 117.258C38.4344 120.313 43.6134 122.343 48.9933 123.711C54.3203 125.064 59.6898 126.322 65.1059 127.234C70.0223 128.062 75.0207 128.433 79.9943 128.881C82.7475 129.129 85.523 129.175 88.2899 129.215C91.9953 129.269 95.7107 129.39 99.4059 129.189C104.302 128.922 109.18 128.351 114.07 127.951C120.485 127.425 126.735 126.032 132.934 124.386C140.28 122.436 147.343 119.761 153.508 115.223C156.228 113.221 158.561 110.715 159.854 107.298C159.92 107.594 160.044 107.89 160.045 108.187C160.054 119.355 160.101 130.524 160.016 141.691C159.997 144.252 158.411 146.302 156.763 148.093C153.082 152.093 148.37 154.631 143.398 156.572C139.031 158.277 134.543 159.725 130.018 160.955C126.463 161.922 122.792 162.549 119.133 163.027C113.705 163.737 108.244 164.18 102.743 164.869C95.8079 165 88.9262 165 81.8934 165Z" fill="#4ED4E1"/>
<path d="M98.7732 81.5332C103.657 81.1053 108.404 80.824 113.108 80.2108C118.436 79.5161 123.791 78.8038 129.011 77.5778C133.718 76.4725 138.3 74.776 142.861 73.1294C146.776 71.7161 150.428 69.7555 153.722 67.1355C156.389 65.0138 158.696 62.687 159.685 58.8185C159.899 59.5279 160.042 59.7833 160.043 60.0388C160.054 71.2637 160.076 82.4886 160.032 93.7132C160.024 95.8793 158.88 97.722 157.544 99.2886C154.792 102.516 151.495 105.102 147.552 106.777C144.226 108.189 140.961 109.787 137.544 110.93C131.832 112.84 125.99 114.329 119.986 115.047C115.397 115.596 110.819 116.341 106.214 116.61C99.2415 117.019 92.2473 117.311 85.2673 117.232C80.1057 117.173 74.9298 116.62 69.799 115.978C59.5717 114.698 49.5236 112.527 39.9979 108.49C35.1234 106.423 30.4554 103.881 26.9432 99.7154C25.1922 97.6387 24.0091 95.3823 24.0286 92.5138C24.0992 82.0951 24.0564 71.6756 24.0564 61.2564C24.0564 60.714 24.0564 60.1716 24.0564 59.7554C25.6232 61.7719 26.9777 63.8534 28.6657 65.6154C31.8957 68.9871 36.0224 71.1135 40.2923 72.7702C44.9985 74.5962 49.841 76.1121 54.7043 77.478C58.1009 78.432 61.6112 79.0503 65.1084 79.5598C69.7865 80.2412 74.4887 80.8952 79.2029 81.1553C85.2869 81.491 91.3931 81.4261 97.4897 81.5324C97.8655 81.5389 98.2416 81.5332 98.7732 81.5332Z" fill="#4ED4E1"/>
<path d="M102.539 0C103.113 0.107421 103.529 0.264566 103.959 0.314735C109.541 0.967163 115.131 1.55643 120.706 2.25788C127.373 3.09654 133.84 4.81662 140.14 7.10768C146.239 9.32539 152.124 12.0307 156.681 16.8322C158.783 19.0461 160.187 21.6374 160.103 24.9725C159.936 31.5738 159.944 38.1847 160.091 44.7869C160.191 49.2696 157.858 52.4174 154.735 54.9967C149.513 59.3106 143.364 62.0208 136.91 63.8608C131.532 65.394 126.043 66.5917 120.545 67.626C116.274 68.4293 111.926 69.0105 107.589 69.2316C99.5423 69.6418 91.4748 69.9605 83.4228 69.8448C78.1791 69.7694 72.9466 68.8673 67.7106 68.3209C59.8184 67.4974 52.1198 65.6735 44.6605 63.0821C38.5268 60.9513 32.5082 58.3172 27.8505 53.5319C25.4372 51.0524 23.8969 48.1611 24.0054 44.4299C24.1926 37.9909 24.1394 31.5412 24.029 25.0987C23.9526 20.6451 26.2468 17.4325 29.4194 14.9111C36.2341 9.49521 44.2156 6.477 52.617 4.52117C57.067 3.48525 61.5236 2.4421 66.0225 1.66469C69.2833 1.10123 72.6168 0.948634 75.9214 0.65234C77.8226 0.481883 79.7308 0.390121 81.6893 0.131468C88.6245 9.60426e-09 95.5063 0 102.539 0Z" fill="#4ED4E1"/>
</svg>
