<svg width="166" height="114" viewBox="0 0 166 114" fill="none" xmlns="http://www.w3.org/2000/svg">
<path d="M0 8.50925C0.321655 7.7532 0.727149 7.10428 0.9505 6.39777C1.93396 3.28688 6.20088 0.355826 9.23313 0.35669C58.1266 0.37061 107.02 0.344887 155.913 0.404084C160.223 0.409302 164.013 4.05231 164.737 8.35141C164.821 8.85059 164.337 9.69005 163.87 10.0014C152.888 17.3183 141.882 24.5974 130.861 31.8556C121.839 37.7976 112.791 43.7 103.759 49.6267C96.6831 54.2702 89.6134 58.9239 82.5489 63.5678C73.7286 57.7589 64.9207 51.9622 56.1171 46.1587C49.3074 41.6696 42.5005 37.1762 35.6972 32.6773C26.4667 26.5733 17.2439 20.4574 8.0106 14.3575C5.80176 12.8983 3.55142 11.5016 1.35126 10.0296C0.903342 9.72997 0.595134 9.22148 0.111261 8.78018C-1.92216e-08 8.75111 0 8.58987 0 8.50925Z" fill="#4ED4E1"/>
<path d="M1.07e-09 105.295C6.08691 101.308 12.1698 97.435 18.262 93.5771C23.0384 90.5524 27.8289 87.5501 32.6086 84.5305C40.769 79.3751 48.925 74.2125 57.0848 69.0562C59.5411 67.504 61.9924 65.9429 64.4783 64.4395C64.8011 64.2443 65.4378 64.1879 65.7283 64.3765C70.2174 67.2912 74.6499 70.2934 79.1452 73.1984C82.0936 75.1037 83.1383 74.9915 85.8672 73.2814C90.2667 70.5244 94.6087 67.6704 98.8869 64.7291C99.7877 64.1098 100.424 64.1743 101.162 64.6404C105.505 67.3866 109.823 70.1724 114.164 72.9233C122.316 78.0905 130.481 83.2394 138.636 88.403C147.099 93.7616 155.565 99.1162 163.995 104.528C164.428 104.806 164.825 105.658 164.735 106.15C163.932 110.501 159.685 113.881 155.172 113.881C106.808 113.881 58.4433 113.881 10.079 113.881C5.70027 113.881 1.99373 111.182 0.639909 107.02C0.546863 106.734 0.370699 106.475 0.116595 106.172C-3.26766e-07 105.9 -3.21414e-07 105.658 1.07e-09 105.295Z" fill="#4ED4E1"/>
<path d="M0 21.4791C2.1085 22.6304 4.25158 23.8803 6.31973 25.2439C17.4701 32.5955 28.5907 39.9925 39.7452 47.3379C44.8614 50.7069 50.0325 53.9925 55.1749 57.3218C55.3983 57.4665 55.5831 57.6707 55.9759 58.0125C37.3163 69.8058 18.7764 81.5234 0.118246 93.2415C-9.61078e-09 69.3714 0 45.5008 0 21.4791Z" fill="#4ED4E1"/>
<path d="M165.112 93.0908C162.203 91.4619 159.278 89.7074 156.388 87.8968C148.61 83.0233 140.839 78.1384 133.08 73.2339C127.376 69.6283 121.697 65.9848 116.006 62.3577C113.775 60.9354 111.544 59.5119 109.123 57.9674C127.845 45.6112 146.383 33.3763 165.016 21.2346C165.112 45.1985 165.112 69.0691 165.112 93.0908Z" fill="#4ED4E1"/>
</svg>
