<svg width="220" height="220" viewBox="0 0 220 220" fill="none" xmlns="http://www.w3.org/2000/svg">
<g clip-path="url(#clip0_645_4)">
<path d="M125.039 0.429688C125.776 0.429688 126.512 0.429688 127.433 0.631064C127.617 74.0315 127.617 147.231 127.617 220.43C126.881 220.43 126.144 220.43 125.163 220.263C122.319 219.634 119.717 219.19 117.122 218.708C110.095 217.402 103.065 216.107 96.0463 214.757C87.399 213.094 78.7655 211.359 70.1187 209.693C63.1686 208.355 56.2026 207.098 49.253 205.757C42.8551 204.522 36.4704 203.219 30.0783 201.954C24.433 200.836 18.7914 199.699 13.1374 198.628C8.91039 197.827 4.66621 197.118 0.429688 196.367C0.429688 139.209 0.429687 82.0509 0.613467 24.6924C3.86275 23.9194 6.92667 23.3379 9.99411 22.7756C15.5933 21.7493 21.2019 20.7727 26.7929 19.7038C32.4428 18.6236 38.0704 17.4276 43.7181 16.3356C49.9857 15.1237 56.2699 13.9982 62.5376 12.7866C68.8663 11.5631 75.1791 10.257 81.5072 9.03011C87.0932 7.9471 92.6943 6.94271 98.2819 5.86796C103.864 4.7943 109.441 3.69583 115.013 2.57061C118.362 1.89414 121.697 1.14576 125.039 0.429688ZM94.5308 80.9968C97.1217 76.7089 99.7126 72.4211 102.45 67.8906C96.2952 67.8906 90.4375 68.0519 84.596 67.8145C82.1171 67.7138 80.9406 68.7736 79.9368 70.7097C77.9978 74.4501 75.8803 78.0993 73.9916 81.8639C71.5826 86.6657 69.3132 91.5378 67.0132 96.3936C66.2857 97.9297 65.6532 99.5108 65.032 100.944C62.9856 96.2403 61.087 91.6684 59.0196 87.1742C56.251 81.156 53.3795 75.1843 50.4655 69.2352C50.1726 68.6371 49.2866 67.956 48.6678 67.9482C41.5407 67.8581 34.4119 67.8907 27.1538 67.8907C27.3768 68.4128 27.5008 68.8118 27.7048 69.1645C30.6433 74.2435 33.5915 79.3167 36.5393 84.3902C41.328 92.6322 46.1464 100.857 50.8588 109.143C51.276 109.876 51.4042 111.249 50.9943 111.906C45.9367 120.001 40.7532 128.017 35.6037 136.055C31.9277 141.793 28.254 147.532 24.4973 153.398C31.5489 153.398 38.3496 153.384 45.1502 153.413C46.2074 153.418 46.8983 153.282 47.4889 152.158C50.927 145.619 54.5654 139.185 57.9936 132.641C60.2327 128.366 62.2306 123.965 64.3249 119.645C65.6653 125.696 69.2604 130.958 72.1787 136.542C75.1155 142.162 78.0551 147.78 80.9626 153.339C88.3618 153.339 95.6355 153.339 103.22 153.339C94.3366 138.789 85.5633 124.419 76.8609 110.164C79.5577 105.737 82.1637 101.499 84.7299 97.2364C87.9371 91.9095 91.1116 86.5628 94.5308 80.9968Z" fill="#4ED4E1"/>
<path d="M220.43 30.5078C220.43 83.7988 220.43 137.09 220.283 190.615C218.303 193.845 215.835 195.175 212.122 195.153C187.494 195.009 162.866 195.078 138.237 195.078C137.47 195.078 136.704 195.078 135.873 195.078C135.873 186.415 135.873 177.936 135.873 169.286C144.299 169.286 152.637 169.286 161.042 169.286C161.042 163.786 161.042 158.457 161.042 152.957C152.615 152.957 144.277 152.957 135.873 152.957C135.873 147.171 135.873 141.556 135.873 135.77C144.3 135.77 152.638 135.77 161.041 135.77C161.041 130.127 161.041 124.654 161.041 119.012C152.614 119.012 144.276 119.012 135.873 119.012C135.873 113.225 135.873 107.61 135.873 101.824C144.3 101.824 152.638 101.824 161.041 101.824C161.041 96.1808 161.041 90.7084 161.041 85.0658C152.614 85.0658 144.276 85.0658 135.873 85.0658C135.873 79.2794 135.873 73.6639 135.873 67.8781C144.301 67.8781 152.639 67.8781 161.041 67.8781C161.041 62.2349 161.041 56.7626 161.041 51.12C152.613 51.12 144.275 51.12 135.873 51.12C135.873 42.6129 135.873 34.2766 135.873 25.7814C136.303 25.7814 136.643 25.7814 136.982 25.7814C162.685 25.7813 188.387 25.7628 214.089 25.8392C215.298 25.8428 216.684 26.4572 217.665 27.2086C218.777 28.0602 219.524 29.3874 220.43 30.5078ZM189.277 101.836C193.902 101.836 198.527 101.836 203.118 101.836C203.118 96.1155 203.118 90.6425 203.118 85.2014C191.936 85.2014 180.879 85.2014 169.851 85.2014C169.851 90.7985 169.851 96.2715 169.851 101.836C176.266 101.836 182.557 101.836 189.277 101.836ZM195.293 119.023C186.802 119.023 178.312 119.023 169.85 119.023C169.85 124.742 169.85 130.215 169.85 135.659C181.031 135.659 192.089 135.659 203.119 135.659C203.119 130.063 203.119 124.59 203.119 119.023C200.572 119.023 198.147 119.023 195.293 119.023ZM199.571 51.5625C189.65 51.5625 179.729 51.5625 169.857 51.5625C169.857 57.1523 169.857 62.4825 169.857 67.76C181.046 67.76 192.105 67.76 203.111 67.76C203.111 62.2984 203.111 56.9682 203.111 51.5625C201.985 51.5625 200.989 51.5625 199.571 51.5625ZM203.241 153.706C202.626 153.46 202.012 153.005 201.395 153.001C194.45 152.95 187.504 152.969 180.558 152.969C176.998 152.969 173.439 152.969 169.821 152.969C169.821 158.484 169.821 163.814 169.821 169.202C180.974 169.202 192.033 169.202 203.242 169.202C203.242 164.112 203.242 159.117 203.241 153.706Z" fill="#4ED4E1"/>
</g>
<defs>
<clipPath id="clip0_645_4">
<rect width="220" height="220" fill="white"/>
</clipPath>
</defs>
</svg>
