<svg width="165" height="214" viewBox="0 0 165 214" fill="none" xmlns="http://www.w3.org/2000/svg">
<path d="M17.77 174.995C19.6033 174.995 21.4367 174.995 23.27 174.995C25.14 174.995 26.9733 175.032 28.77 175.105C30.6033 175.142 32.3633 175.215 34.05 175.325L33.83 179.12H18.595C17.4583 179.12 16.615 179.413 16.065 180C15.5517 180.55 15.295 181.467 15.295 182.75V205.3C15.295 206.583 15.5517 207.518 16.065 208.105C16.615 208.692 17.4583 208.985 18.595 208.985H33.83L34.05 212.725C32.3633 212.835 30.6033 212.908 28.77 212.945C26.9733 212.982 25.14 213 23.27 213C21.4367 213.037 19.6033 213.055 17.77 213.055C15.5333 213.055 13.755 212.468 12.435 211.295C11.1517 210.085 10.4917 208.472 10.455 206.455V181.595C10.4917 179.542 11.1517 177.928 12.435 176.755C13.755 175.582 15.5333 174.995 17.77 174.995ZM11.445 191H31.685V194.905H11.445V191ZM68.2914 175.05L58.2814 193.365L69.0064 213H63.7264L53.3314 193.365L63.0664 175.05H68.2914ZM44.0914 175.05L53.8264 193.365L43.4314 213H38.1514L48.8214 193.365L38.8664 175.05H44.0914ZM56.4664 191.44V195.18H50.6364V191.44H56.4664ZM87.6389 174.39C89.2522 174.39 90.6272 174.427 91.7639 174.5C92.9372 174.573 94.0006 174.702 94.9539 174.885C95.9439 175.032 96.9522 175.233 97.9789 175.49L97.4839 179.175C96.3839 179.065 95.3572 178.973 94.4039 178.9C93.4872 178.827 92.4972 178.772 91.4339 178.735C90.3706 178.698 89.1056 178.68 87.6389 178.68C85.1822 178.68 83.2389 179.157 81.8089 180.11C80.3789 181.063 79.3522 182.658 78.7289 184.895C78.1422 187.132 77.8489 190.175 77.8489 194.025C77.8489 197.875 78.1422 200.918 78.7289 203.155C79.3522 205.392 80.3789 206.987 81.8089 207.94C83.2389 208.893 85.1822 209.37 87.6389 209.37C89.9856 209.37 91.9472 209.333 93.5239 209.26C95.1372 209.15 96.7139 208.985 98.2539 208.765L98.7489 212.395C97.1722 212.835 95.5406 213.147 93.8539 213.33C92.2039 213.55 90.1322 213.66 87.6389 213.66C84.0089 213.66 81.0939 213.037 78.8939 211.79C76.7306 210.507 75.1539 208.435 74.1639 205.575C73.2106 202.715 72.7339 198.865 72.7339 194.025C72.7339 189.185 73.2106 185.335 74.1639 182.475C75.1539 179.615 76.7306 177.562 78.8939 176.315C81.0939 175.032 84.0089 174.39 87.6389 174.39ZM112.516 174.995C114.349 174.995 116.183 174.995 118.016 174.995C119.886 174.995 121.719 175.032 123.516 175.105C125.349 175.142 127.109 175.215 128.796 175.325L128.576 179.12H113.341C112.204 179.12 111.361 179.413 110.811 180C110.298 180.55 110.041 181.467 110.041 182.75V205.3C110.041 206.583 110.298 207.518 110.811 208.105C111.361 208.692 112.204 208.985 113.341 208.985H128.576L128.796 212.725C127.109 212.835 125.349 212.908 123.516 212.945C121.719 212.982 119.886 213 118.016 213C116.183 213.037 114.349 213.055 112.516 213.055C110.279 213.055 108.501 212.468 107.181 211.295C105.898 210.085 105.238 208.472 105.201 206.455V181.595C105.238 179.542 105.898 177.928 107.181 176.755C108.501 175.582 110.279 174.995 112.516 174.995ZM106.191 191H126.431V194.905H106.191V191ZM140.982 175.05V205.3C140.982 206.547 141.276 207.463 141.862 208.05C142.486 208.637 143.421 208.93 144.667 208.93H158.362L158.582 212.67C156.199 212.853 153.761 212.963 151.267 213C148.811 213.037 146.354 213.055 143.897 213.055C141.111 213.055 139.131 212.377 137.957 211.02C136.784 209.663 136.197 207.958 136.197 205.905V175.05H140.982Z" fill="#4ED4E1"/>
<path d="M159.682 19.0385H101.539V37.9754H120.774V50.8644H101.539V63.4615H120.577V76.1538H101.539V88.8461H120.577V101.538H101.539V114.231H120.577V126.923H101.539V145.962H159.682C162.608 145.962 165 143.48 165 140.44V24.5596C165 21.5198 162.608 19.0385 159.682 19.0385ZM152.308 126.923H126.923V114.231H152.308V126.923ZM152.308 101.538H126.923V88.8461H152.308V101.538ZM152.308 76.1538H126.923V63.4615H152.308V76.1538ZM152.308 50.7692H126.923V38.0769H152.308V50.7692Z" fill="#4ED4E1"/>
<path d="M0 18.334V146.672L95.1923 165V0L0 18.334ZM60.2123 114.738L49.1383 93.8025C48.7194 93.0219 48.2879 91.5877 47.8373 89.4998H47.666C47.4565 90.4835 46.9615 91.9812 46.181 93.9865L35.0688 114.738H17.8137L38.299 82.6015L19.5588 50.4583H37.1758L46.365 69.7315C47.0821 71.2546 47.7231 73.0633 48.2942 75.1512H48.4719C48.8337 73.8946 49.5063 72.0288 50.49 69.5475L60.7073 50.4519H76.8392L57.566 82.3223L77.3787 114.732L60.2123 114.738Z" fill="#4ED4E1"/>
</svg>
