<svg width="207" height="207" viewBox="0 0 207 207" fill="none" xmlns="http://www.w3.org/2000/svg">
<g clip-path="url(#clip0_645_4)">
<path d="M117.65 0.404297C118.343 0.404297 119.036 0.404297 119.903 0.593773C120.076 69.6569 120.076 138.531 120.076 207.404C119.383 207.404 118.69 207.404 117.767 207.247C115.091 206.656 112.643 206.238 110.201 205.784C103.589 204.555 96.975 203.337 90.3708 202.067C82.2345 200.502 74.1112 198.87 65.9754 197.302C59.4359 196.043 52.8816 194.86 46.3426 193.599C40.3227 192.437 34.3153 191.21 28.3009 190.02C22.9893 188.969 17.681 187.899 12.3611 186.891C8.38387 186.138 4.39048 185.47 0.404297 184.764C0.404297 130.983 0.404297 77.2024 0.577216 23.2333C3.6345 22.506 6.51737 21.9589 9.40355 21.4298C14.6719 20.4641 19.9491 19.5452 25.2097 18.5394C30.5257 17.5231 35.8208 16.3978 41.1348 15.3703C47.032 14.23 52.9449 13.1711 58.8422 12.031C64.7969 10.8798 70.7367 9.65092 76.6909 8.49651C81.9467 7.47749 87.2169 6.53246 92.4743 5.52121C97.7263 4.511 102.974 3.47744 108.216 2.41871C111.368 1.78222 114.506 1.07805 117.65 0.404297ZM88.9449 76.2106C91.3827 72.1761 93.8205 68.1417 96.3962 63.8789C90.605 63.8789 85.0934 64.0307 79.5971 63.8073C77.2647 63.7125 76.1577 64.7097 75.2133 66.5314C73.3889 70.0507 71.3965 73.4843 69.6194 77.0265C67.3527 81.5445 65.2174 86.1287 63.0534 90.6976C62.3688 92.1429 61.7736 93.6306 61.1892 94.9796C59.2638 90.5534 57.4773 86.2516 55.532 82.023C52.9271 76.3604 50.2253 70.7416 47.4835 65.144C47.2078 64.5813 46.3742 63.9404 45.792 63.933C39.086 63.8483 32.3785 63.879 25.5493 63.879C25.7591 64.3702 25.8757 64.7456 26.0677 65.0775C28.8325 69.8563 31.6065 74.6298 34.3802 79.4035C38.8859 87.1585 43.4196 94.8975 47.8535 102.693C48.246 103.383 48.3667 104.676 47.981 105.293C43.2222 112.91 38.345 120.452 33.4998 128.015C30.041 133.414 26.5844 138.814 23.0498 144.334C29.6846 144.334 36.0835 144.321 42.4823 144.348C43.4769 144.352 44.1271 144.224 44.6827 143.167C47.9177 137.014 51.341 130.96 54.5667 124.803C56.6735 120.781 58.5533 116.64 60.5239 112.575C61.7851 118.268 65.1677 123.22 67.9136 128.474C70.6769 133.761 73.4427 139.047 76.1785 144.278C83.1405 144.278 89.9843 144.278 97.1203 144.278C88.7622 130.588 80.5073 117.067 72.3191 103.655C74.8565 99.4891 77.3086 95.5011 79.7232 91.4906C82.7408 86.4785 85.7277 81.4478 88.9449 76.2106Z" fill="#4ED4E1"/>
<path d="M207.404 28.7051C207.404 78.847 207.404 128.989 207.267 179.351C205.403 182.391 203.081 183.642 199.587 183.621C176.415 183.485 153.242 183.551 130.069 183.551C129.347 183.551 128.626 183.551 127.844 183.551C127.844 175.4 127.844 167.421 127.844 159.283C135.773 159.283 143.618 159.283 151.526 159.283C151.526 154.108 151.526 149.093 151.526 143.919C143.596 143.919 135.751 143.919 127.844 143.919C127.844 138.475 127.844 133.191 127.844 127.747C135.773 127.747 143.618 127.747 151.525 127.747C151.525 122.437 151.525 117.288 151.525 111.979C143.596 111.979 135.751 111.979 127.844 111.979C127.844 106.535 127.844 101.251 127.844 95.807C135.774 95.807 143.619 95.807 151.525 95.807C151.525 90.4974 151.525 85.3484 151.525 80.0391C143.596 80.0391 135.75 80.0391 127.844 80.0391C127.844 74.5947 127.844 69.311 127.844 63.8671C135.774 63.8671 143.619 63.8671 151.525 63.8671C151.525 58.5574 151.525 53.4085 151.525 48.0992C143.595 48.0992 135.75 48.0992 127.844 48.0992C127.844 40.0949 127.844 32.2511 127.844 24.2579C128.248 24.2579 128.568 24.2579 128.888 24.2579C153.071 24.2579 177.255 24.2404 201.438 24.3123C202.576 24.3157 203.88 24.8938 204.803 25.6009C205.849 26.4021 206.552 27.6509 207.404 28.7051ZM178.093 95.8184C182.444 95.8184 186.796 95.8184 191.116 95.8184C191.116 90.4359 191.116 85.2864 191.116 80.1668C180.594 80.1668 170.19 80.1668 159.814 80.1668C159.814 85.4332 159.814 90.5827 159.814 95.8184C165.85 95.8184 171.769 95.8184 178.093 95.8184ZM183.753 111.99C175.764 111.99 167.775 111.99 159.813 111.99C159.813 117.371 159.813 122.52 159.813 127.643C170.334 127.643 180.738 127.643 191.117 127.643C191.117 122.377 191.117 117.228 191.117 111.99C188.72 111.99 186.438 111.99 183.753 111.99ZM187.778 48.5156C178.443 48.5156 169.108 48.5156 159.82 48.5156C159.82 53.7751 159.82 58.7903 159.82 63.756C170.348 63.756 180.753 63.756 191.109 63.756C191.109 58.6171 191.109 53.6019 191.109 48.5156C190.049 48.5156 189.113 48.5156 187.778 48.5156ZM191.231 144.623C190.652 144.392 190.075 143.964 189.495 143.96C182.959 143.912 176.424 143.93 169.888 143.93C166.539 143.93 163.19 143.93 159.786 143.93C159.786 149.119 159.786 154.134 159.786 159.203C170.28 159.203 180.685 159.203 191.232 159.203C191.232 154.415 191.232 149.714 191.231 144.623Z" fill="#4ED4E1"/>
</g>
<defs>
<clipPath id="clip0_645_4">
<rect width="207" height="207" fill="white"/>
</clipPath>
</defs>
</svg>
