<svg width="192" height="192" viewBox="0 0 192 192" fill="none" xmlns="http://www.w3.org/2000/svg">
<g clip-path="url(#clip0_645_4)">
<path d="M109.125 0.375C109.768 0.375 110.411 0.375 111.214 0.550746C111.375 64.6093 111.375 128.492 111.375 192.375C110.732 192.375 110.089 192.375 109.233 192.229C106.751 191.681 104.48 191.293 102.216 190.872C96.0828 189.732 89.9479 188.602 83.8222 187.424C76.2755 185.973 68.7408 184.459 61.1945 183.005C55.129 181.837 49.0496 180.74 42.9844 179.57C37.4008 178.492 31.8287 177.355 26.2501 176.25C21.3234 175.275 16.3998 174.283 11.4653 173.348C7.77634 172.649 4.07232 172.03 0.375 171.375C0.375 121.492 0.375 71.608 0.535389 21.5498C3.37113 20.8751 6.0451 20.3676 8.72213 19.8769C13.6087 18.9812 18.5035 18.1289 23.3829 17.196C28.3137 16.2533 33.2251 15.2096 38.154 14.2565C43.6238 13.1988 49.1083 12.2166 54.5782 11.1592C60.1015 10.0914 65.6108 8.95158 71.1336 7.88082C76.0086 6.93565 80.8969 6.05909 85.7733 5.12112C90.6447 4.18412 95.5121 3.22545 100.375 2.24345C103.298 1.65307 106.209 0.999932 109.125 0.375ZM82.4996 70.6881C84.7607 66.946 87.0219 63.2039 89.411 59.25C84.0395 59.25 78.9273 59.3908 73.8292 59.1836C71.6658 59.0957 70.639 60.0206 69.7631 61.7103C68.0708 64.9746 66.2228 68.1594 64.5745 71.4449C62.4721 75.6355 60.4915 79.8875 58.4843 84.1254C57.8493 85.4659 57.2973 86.8458 56.7552 88.097C54.9693 83.9915 53.3123 80.0015 51.508 76.0793C49.0918 70.8271 46.5858 65.6154 44.0426 60.4234C43.787 59.9015 43.0138 59.307 42.4738 59.3002C36.2537 59.2216 30.0322 59.2501 23.6979 59.2501C23.8925 59.7057 24.0007 60.0539 24.1788 60.3618C26.7432 64.7943 29.3162 69.2219 31.8888 73.6497C36.0681 80.8426 40.2732 88.0209 44.3859 95.2517C44.7499 95.8919 44.8618 97.0904 44.5041 97.663C40.0902 104.728 35.5664 111.724 31.0723 118.739C27.8642 123.746 24.658 128.755 21.3795 133.875C27.5336 133.875 33.4688 133.863 39.4038 133.888C40.3264 133.892 40.9295 133.773 41.4449 132.793C44.4454 127.086 47.6207 121.471 50.6126 115.759C52.5667 112.029 54.3103 108.188 56.1381 104.417C57.3079 109.698 60.4454 114.291 62.9923 119.164C65.5554 124.068 68.1208 128.971 70.6583 133.824C77.1158 133.824 83.4637 133.824 90.0826 133.824C82.3301 121.125 74.6734 108.584 67.0786 96.1433C69.4322 92.2798 71.7065 88.5808 73.9461 84.8609C76.7451 80.2119 79.5155 75.5458 82.4996 70.6881Z" fill="#4ED4E1"/>
<path d="M192.375 26.625C192.375 73.1335 192.375 119.642 192.247 166.355C190.519 169.174 188.365 170.334 185.124 170.315C163.631 170.189 142.137 170.25 120.643 170.25C119.974 170.25 119.305 170.25 118.58 170.25C118.58 162.69 118.58 155.289 118.58 147.74C125.934 147.74 133.211 147.74 140.545 147.74C140.545 142.94 140.545 138.29 140.545 133.49C133.191 133.49 125.914 133.49 118.58 133.49C118.58 128.44 118.58 123.539 118.58 118.49C125.934 118.49 133.211 118.49 140.545 118.49C140.545 113.565 140.545 108.789 140.545 103.865C133.19 103.865 125.914 103.865 118.58 103.865C118.58 98.8147 118.58 93.9139 118.58 88.8645C125.935 88.8645 133.211 88.8645 140.545 88.8645C140.545 83.9396 140.545 79.1637 140.545 74.2392C133.19 74.2392 125.913 74.2392 118.58 74.2392C118.58 69.1893 118.58 64.2885 118.58 59.239C125.935 59.239 133.212 59.239 140.545 59.239C140.545 54.3141 140.545 49.5383 140.545 44.6138C133.189 44.6138 125.913 44.6138 118.58 44.6138C118.58 37.1894 118.58 29.9141 118.58 22.5001C118.955 22.5001 119.252 22.5001 119.548 22.5001C141.979 22.5001 164.41 22.4839 186.841 22.5506C187.896 22.5537 189.106 23.0899 189.962 23.7457C190.932 24.4889 191.585 25.6472 192.375 26.625ZM165.188 88.875C169.224 88.875 173.26 88.875 177.267 88.875C177.267 83.8826 177.267 79.1062 177.267 74.3576C167.508 74.3576 157.858 74.3576 148.233 74.3576C148.233 79.2424 148.233 84.0187 148.233 88.875C153.832 88.875 159.322 88.875 165.188 88.875ZM170.437 103.875C163.027 103.875 155.618 103.875 148.233 103.875C148.233 108.866 148.233 113.642 148.233 118.393C157.991 118.393 167.641 118.393 177.268 118.393C177.268 113.509 177.268 108.733 177.268 103.875C175.044 103.875 172.928 103.875 170.437 103.875ZM174.171 45C165.513 45 156.854 45 148.239 45C148.239 49.8784 148.239 54.5302 148.239 59.136C158.004 59.136 167.655 59.136 177.26 59.136C177.26 54.3695 177.26 49.7177 177.26 45C176.277 45 175.409 45 174.171 45ZM177.374 134.143C176.837 133.929 176.301 133.532 175.763 133.528C169.701 133.484 163.639 133.5 157.578 133.5C154.471 133.5 151.365 133.5 148.207 133.5C148.207 138.314 148.207 142.965 148.207 147.667C157.941 147.667 167.592 147.667 177.375 147.667C177.375 143.225 177.375 138.865 177.374 134.143Z" fill="#4ED4E1"/>
</g>
<defs>
<clipPath id="clip0_645_4">
<rect width="192" height="192" fill="white"/>
</clipPath>
</defs>
</svg>
