<svg width="149" height="196" viewBox="0 0 149 196" fill="none" xmlns="http://www.w3.org/2000/svg">
<path d="M69.5333 0V59.6522H34.7667C15.6202 59.6522 0 46.2517 0 29.8261C0 13.4004 15.6202 0 34.7667 0H69.5333ZM69.5333 68.1739V127.826H34.7667C15.6202 127.826 0 114.426 0 98C0 81.5743 15.6202 68.1739 34.7667 68.1739H69.5333ZM69.5333 136.348V166.174C69.5333 182.6 53.9132 196 34.7667 196C15.6202 196 0 182.6 0 166.174C0 149.748 15.6202 136.348 34.7667 136.348H69.5333ZM149 29.8261C149 46.2517 133.38 59.6522 114.233 59.6522H79.4667V0H114.233C133.38 0 149 13.4004 149 29.8261ZM114.233 68.1739C105.013 68.1739 96.1696 71.3163 89.6496 76.9098C83.1296 82.5032 79.4667 90.0896 79.4667 98C79.4667 105.91 83.1296 113.497 89.6496 119.09C96.1696 124.684 105.013 127.826 114.233 127.826C123.454 127.826 132.297 124.684 138.817 119.09C145.337 113.497 149 105.91 149 98C149 90.0896 145.337 82.5032 138.817 76.9098C132.297 71.3163 123.454 68.1739 114.233 68.1739Z" fill="#4ED4E1"/>
</svg>
