<svg width="407" height="624" viewBox="0 0 407 624" fill="none" xmlns="http://www.w3.org/2000/svg">
<path d="M189.933 0V189.913H94.9667C42.6672 189.913 0 147.25 0 94.9565C0 42.6626 42.6672 0 94.9667 0H189.933ZM189.933 217.043V406.957H94.9667C42.6672 406.957 0 364.294 0 312C0 259.706 42.6672 217.043 94.9667 217.043H189.933ZM189.933 434.087V529.043C189.933 581.337 147.266 624 94.9667 624C42.6672 624 0 581.337 0 529.043C0 476.75 42.6672 434.087 94.9667 434.087H189.933ZM407 94.9565C407 147.25 364.333 189.913 312.033 189.913H217.067V0H312.033C364.333 0 407 42.6626 407 94.9565ZM312.033 217.043C286.847 217.043 262.691 227.048 244.882 244.856C227.072 262.663 217.067 286.816 217.067 312C217.067 337.184 227.072 361.337 244.882 379.144C262.691 396.952 286.847 406.957 312.033 406.957C337.22 406.957 361.375 396.952 379.185 379.144C396.995 361.337 407 337.184 407 312C407 286.816 396.995 262.663 379.185 244.856C361.375 227.048 337.22 217.043 312.033 217.043Z" fill="#4ED4E1"/>
</svg>
