<svg width="75" height="100" viewBox="0 0 75 100" fill="none" xmlns="http://www.w3.org/2000/svg">
<path d="M34.7667 0V30.4348H17.3833C7.81008 30.4348 0 23.5978 0 15.2174C0 6.83696 7.81008 0 17.3833 0H34.7667ZM34.7667 34.7826V65.2174H17.3833C7.81008 65.2174 0 58.3804 0 50C0 41.6196 7.81008 34.7826 17.3833 34.7826H34.7667ZM34.7667 69.5652V84.7826C34.7667 93.163 26.9566 100 17.3833 100C7.81008 100 0 93.163 0 84.7826C0 76.4022 7.81008 69.5652 17.3833 69.5652H34.7667ZM74.5 15.2174C74.5 23.5978 66.6899 30.4348 57.1167 30.4348H39.7333V0H57.1167C66.6899 0 74.5 6.83696 74.5 15.2174ZM57.1167 34.7826C52.5063 34.7826 48.0848 36.3859 44.8248 39.2397C41.5648 42.0935 39.7333 45.9641 39.7333 50C39.7333 54.0359 41.5648 57.9065 44.8248 60.7603C48.0848 63.6141 52.5063 65.2174 57.1167 65.2174C61.727 65.2174 66.1485 63.6141 69.4085 60.7603C72.6686 57.9065 74.5 54.0359 74.5 50C74.5 45.9641 72.6686 42.0935 69.4085 39.2397C66.1485 36.3859 61.727 34.7826 57.1167 34.7826Z" fill="#4ED4E1"/>
</svg>
