<svg width="162" height="214" viewBox="0 0 162 214" fill="none" xmlns="http://www.w3.org/2000/svg">
<path d="M11.99 174.995C13.75 174.995 15.5283 175.013 17.325 175.05C19.1217 175.05 20.9 175.068 22.66 175.105C24.42 175.142 26.1067 175.233 27.72 175.38L27.445 179.12H13.2C11.9167 179.12 10.9817 179.413 10.395 180C9.80833 180.55 9.515 181.467 9.515 182.75V213H4.675V181.815C4.675 179.652 5.335 177.983 6.655 176.81C7.975 175.6 9.75333 174.995 11.99 174.995ZM5.61 191.55H25.355V195.455H5.61V191.55ZM39.2734 175.05V213H34.4334V175.05H39.2734ZM63.293 174.335C64.5763 174.335 65.823 174.372 67.033 174.445C68.243 174.518 69.4163 174.647 70.553 174.83C71.6896 174.977 72.7896 175.197 73.853 175.49L73.358 179.12C72.2213 179.01 71.0663 178.918 69.893 178.845C68.7563 178.772 67.6563 178.735 66.593 178.735C65.5296 178.698 64.5213 178.68 63.568 178.68C61.5146 178.68 59.773 178.882 58.343 179.285C56.9496 179.652 55.8313 180.385 54.988 181.485C54.1446 182.585 53.5213 184.162 53.118 186.215C52.7513 188.268 52.568 190.945 52.568 194.245C52.568 197.985 52.8246 200.973 53.338 203.21C53.8513 205.41 54.713 207.005 55.923 207.995C57.133 208.985 58.7463 209.48 60.763 209.48C62.1563 209.48 63.4213 209.278 64.558 208.875C65.7313 208.472 66.813 207.958 67.803 207.335C68.8296 206.675 69.8196 205.997 70.773 205.3L71.433 208.27C70.773 209.04 69.8563 209.847 68.683 210.69C67.5463 211.533 66.208 212.248 64.668 212.835C63.128 213.422 61.3863 213.715 59.443 213.715C56.6196 213.715 54.3096 213.018 52.513 211.625C50.753 210.195 49.4696 208.032 48.663 205.135C47.8563 202.202 47.453 198.462 47.453 193.915C47.453 188.892 47.948 184.968 48.938 182.145C49.9646 179.285 51.633 177.268 53.943 176.095C56.2896 174.922 59.4063 174.335 63.293 174.335ZM74.843 191.055V213H71.323L70.553 207.39L70.113 206.29V191.055H74.843ZM119.224 175.05C120.544 175.05 121.204 175.728 121.204 177.085L122.799 213H117.959L116.584 179.065H115.429L106.959 207.06C106.666 208.16 105.969 208.71 104.869 208.71H100.524C99.3874 208.71 98.6541 208.16 98.3241 207.06L89.8541 179.065H88.7541L87.4341 213H82.5941L84.0791 177.085C84.1524 175.728 84.8308 175.05 86.1141 175.05H91.6141C92.6408 175.05 93.3191 175.6 93.6491 176.7L100.744 199.855C101.037 200.698 101.276 201.542 101.459 202.385C101.679 203.228 101.917 204.09 102.174 204.97H103.164C103.421 204.09 103.659 203.228 103.879 202.385C104.099 201.542 104.337 200.662 104.594 199.745L111.689 176.7C111.982 175.6 112.679 175.05 113.779 175.05H119.224ZM146.447 175.05C146.887 175.05 147.272 175.178 147.602 175.435C147.932 175.655 148.152 175.967 148.262 176.37L160.472 213H155.467L145.622 181.87C145.475 181.357 145.31 180.843 145.127 180.33C144.98 179.78 144.833 179.267 144.687 178.79H143.147C143 179.267 142.853 179.78 142.707 180.33C142.56 180.843 142.395 181.357 142.212 181.87L132.367 213H127.362L139.572 176.37C139.682 175.967 139.902 175.655 140.232 175.435C140.562 175.178 140.947 175.05 141.387 175.05H146.447ZM153.487 196.94V201.12H134.237V196.94H153.487Z" fill="#4ED4E1"/>
<path d="M76.5689 0V50.2174H49.7844C35.0339 50.2174 23 38.9364 23 25.1087C23 11.281 35.0339 0 49.7844 0H76.5689ZM76.5689 57.3913V107.609H49.7844C35.0339 107.609 23 96.3277 23 82.5C23 68.6723 35.0339 57.3913 49.7844 57.3913H76.5689ZM76.5689 114.783V139.891C76.5689 153.719 64.535 165 49.7844 165C35.0339 165 23 153.719 23 139.891C23 126.064 35.0339 114.783 49.7844 114.783H76.5689ZM137.79 25.1087C137.79 38.9364 125.757 50.2174 111.006 50.2174H84.2216V0H111.006C125.757 0 137.79 11.281 137.79 25.1087ZM111.006 57.3913C103.902 57.3913 97.0896 60.0367 92.0666 64.7455C87.0435 69.4543 84.2216 75.8408 84.2216 82.5C84.2216 89.1592 87.0435 95.5457 92.0666 100.255C97.0896 104.963 103.902 107.609 111.006 107.609C118.11 107.609 124.922 104.963 129.946 100.255C134.969 95.5457 137.79 89.1592 137.79 82.5C137.79 75.8408 134.969 69.4543 129.946 64.7455C124.922 60.0367 118.11 57.3913 111.006 57.3913Z" fill="#4ED4E1"/>
</svg>
