<svg width="107" height="164" viewBox="0 0 107 164" fill="none" xmlns="http://www.w3.org/2000/svg">
<path d="M49.9333 0V49.913H24.9667C11.2172 49.913 0 38.7004 0 24.9565C0 11.2126 11.2172 0 24.9667 0H49.9333ZM49.9333 57.0435V106.957H24.9667C11.2172 106.957 0 95.7439 0 82C0 68.2561 11.2172 57.0435 24.9667 57.0435H49.9333ZM49.9333 114.087V139.043C49.9333 152.787 38.7162 164 24.9667 164C11.2172 164 0 152.787 0 139.043C0 125.3 11.2172 114.087 24.9667 114.087H49.9333ZM107 24.9565C107 38.7004 95.7828 49.913 82.0333 49.913H57.0667V0H82.0333C95.7828 0 107 11.2126 107 24.9565ZM82.0333 57.0435C75.4118 57.0435 69.0614 59.6728 64.3792 64.3531C59.6971 69.0333 57.0667 75.3811 57.0667 82C57.0667 88.6189 59.6971 94.9667 64.3792 99.6469C69.0614 104.327 75.4118 106.957 82.0333 106.957C88.6549 106.957 95.0053 104.327 99.6874 99.6469C104.37 94.9667 107 88.6189 107 82C107 75.3811 104.37 69.0333 99.6874 64.3531C95.0053 59.6728 88.6549 57.0435 82.0333 57.0435Z" fill="#4ED4E1"/>
</svg>
