<svg width="165" height="162" viewBox="0 0 165 162" fill="none" xmlns="http://www.w3.org/2000/svg">
<path d="M165 90.1971C164.785 91.6084 164.589 92.8717 164.352 94.1271C163.605 98.078 163.184 102.132 162.003 105.948C160.474 110.885 158.684 115.809 156.358 120.406C154.091 124.887 151.191 129.085 148.223 133.154C145.735 136.564 142.941 139.804 139.942 142.772C134.823 147.839 129.194 152.342 122.714 155.558C118.28 157.759 113.714 159.722 109.107 161.532C105.469 162.962 102.793 160.934 102.792 157.071C102.789 149.035 102.895 140.997 102.753 132.963C102.665 127.95 101.118 123.388 97.2348 119.535C98.5041 119.279 99.6025 118.965 100.721 118.848C106.678 118.224 112.28 116.527 117.576 113.68C122.988 110.77 127.403 106.862 130.16 101.322C132.42 96.7821 133.927 91.9635 134.371 86.8692C134.63 83.9065 135.06 80.9293 134.974 77.9715C134.767 70.9069 132.873 64.324 128.23 58.8379C126.803 57.1511 126.559 55.6529 127.268 53.619C128.583 49.8457 128.564 45.9459 127.724 42.0573C127.351 40.3324 126.971 38.6006 126.444 36.9195C125.631 34.3272 124.641 33.8119 122.052 34.3853C116.422 35.6318 111.184 37.9178 106.515 41.2191C103.757 43.169 101.267 42.8096 98.3839 42.0939C95.7575 41.4417 93.029 41.1733 90.3323 40.8463C87.8718 40.5479 85.3964 40.2778 82.9222 40.2177C80.6442 40.1623 78.3466 40.2897 76.0804 40.5422C73.3302 40.8486 70.6021 41.3591 67.8682 41.8051C66.7397 41.9892 65.51 42.0087 64.5211 42.4991C62.3714 43.5653 60.8114 42.5603 59.0991 41.4873C54.2529 38.4504 49.1368 35.9977 43.5398 34.6739C39.7793 33.7845 38.9331 34.2241 38.0422 37.8313C37.1675 41.3727 36.345 44.9606 36.7513 48.6366C36.9966 50.8557 37.4821 53.0705 38.1051 55.2154C38.4062 56.2523 38.2609 56.8439 37.5971 57.6225C33.9125 61.9442 31.4198 66.8742 30.6191 72.5404C30.2341 75.2652 29.8922 78.0445 29.9947 80.7816C30.3347 89.8626 32.2808 98.5461 37.7701 105.999C40.0327 109.071 43.1729 111.305 46.4798 113.267C51.468 116.225 56.9555 117.662 62.5446 118.798C64.1736 119.13 65.8637 119.158 67.8523 119.358C65.4579 121.834 63.8006 124.364 63.0894 127.432C62.9258 128.138 62.4852 128.852 62.553 129.523C62.6998 130.976 61.6653 131.223 60.7609 131.422C58.378 131.944 55.9546 132.278 53.563 132.764C49.6454 133.561 46.3408 132.201 43.1805 130.045C40.3353 128.104 39.0397 124.968 37.0186 122.391C34.039 118.591 30.3142 115.889 25.367 115.44C24.2224 115.336 23.0226 115.846 21.7927 116.084C22.7456 118.793 24.8799 119.929 26.7567 121.243C29.2144 122.965 30.7356 125.406 32.1712 127.9C33.2552 129.784 34.0855 131.817 34.9972 133.798C37.2526 138.699 41.3067 141.266 46.3837 142.066C49.9793 142.632 53.6718 142.66 57.325 142.737C58.872 142.77 60.4293 142.311 62.1117 142.057C62.1367 142.621 62.175 143.09 62.1755 143.558C62.18 148.088 62.1406 152.619 62.1887 157.149C62.2372 161.722 59.0993 162.616 56.0467 161.651C48.0448 159.122 40.6046 155.318 33.8624 150.336C30.0435 147.514 26.4714 144.279 23.1464 140.877C18.2628 135.88 14.1083 130.265 10.6238 124.169C7.6276 118.928 5.02832 113.498 3.5113 107.647C2.33556 103.113 1.5681 98.4716 0.607038 93.8804C0.522554 93.4768 0.348081 93.0922 0.0923793 92.6566C-0.0306459 86.2423 -0.0306459 79.8702 0.0914987 73.3053C0.666845 70.7558 1.14524 68.4038 1.56887 66.0418C3.37496 55.9719 7.34231 46.7667 12.7819 38.1887C17.2095 31.2065 22.613 25.0598 28.8993 19.6721C33.8809 15.4026 39.2945 11.806 45.0939 8.81227C51.0422 5.74169 57.2911 3.3639 63.8553 2.04303C68.311 1.14644 72.8388 0.360053 77.3651 0.127385C83.9819 -0.212747 90.5913 0.114381 97.1807 1.27641C104.8 2.62014 112.031 4.99399 118.956 8.35858C125.546 11.5607 131.647 15.5902 137.084 20.4904C142.137 25.0455 146.724 30.0624 150.555 35.7698C154.369 41.4516 157.653 47.3878 160 53.8078C162.133 59.6406 163.77 65.6195 164.369 71.8434C164.496 73.165 164.785 74.4709 165 75.784C165 80.5378 165 85.2916 165 90.1971Z" fill="#4ED4E1"/>
</svg>
