<svg width="165" height="165" viewBox="0 0 165 165" fill="none" xmlns="http://www.w3.org/2000/svg">
<g clip-path="url(#clip0_639_39)">
<path d="M165.322 40.2832C165.322 68.5419 165.322 96.8006 165.195 125.258C164.728 130.29 163.306 134.851 161.28 139.193C158.102 146.003 153.504 151.715 147.48 156.27C142.619 159.945 137.276 162.581 131.358 164.025C129.372 164.51 127.361 164.893 125.361 165.322C97.1026 165.322 68.844 165.322 40.3861 165.195C35.3606 164.751 30.8144 163.307 26.4837 161.296C19.6351 158.115 13.8853 153.492 9.33464 147.425C6.11108 143.126 3.57371 138.486 2.20342 133.258C1.57031 130.842 0.948952 128.423 0.322266 126.006C0.322265 97.1026 0.322265 68.1994 0.444882 39.1033C0.700484 38.4111 0.818565 37.9072 0.968834 37.4131C2.07688 33.77 2.84015 29.9724 4.37793 26.5201C7.44793 19.6279 12.1362 13.9043 18.2036 9.33763C23.0607 5.68196 28.3949 3.0576 34.3001 1.61894C36.2821 1.13606 38.2881 0.751671 40.2832 0.322266C68.5419 0.322266 96.8006 0.322266 125.258 0.449799C130.29 0.916914 134.851 2.33872 139.193 4.36477C146.003 7.54289 151.715 12.1409 156.27 18.1648C159.945 23.0255 162.581 28.3683 164.025 34.2864C164.51 36.2725 164.893 38.2836 165.322 40.2832ZM122.625 61.8771C118.911 54.8809 113.783 49.2204 107.048 44.9739C98.5175 39.5948 89.3446 37.0865 79.2298 37.9867C75.4591 38.3223 71.8215 39.0208 68.2606 40.2709C58.4002 43.7326 50.589 49.7527 44.9715 58.6165C39.5738 67.1335 37.089 76.3181 37.984 86.4335C38.3224 90.2582 39.0417 93.9531 40.291 97.5591C42.4546 103.804 45.7456 109.419 50.4729 114.019C53.2353 116.706 56.3267 119.158 59.5947 121.194C62.7267 123.146 66.1512 124.851 69.6744 125.901C75.1493 127.535 80.8133 128.582 86.6087 127.614C89.7933 127.082 93.103 126.905 96.1286 125.89C104.328 123.139 111.464 118.688 117.099 111.93C121.294 106.897 124.35 101.32 126.159 95.0608C127.845 89.2329 128.417 83.2646 127.583 77.2495C126.847 71.9414 125.329 66.8323 122.625 61.8771ZM141.152 26.2632C138.335 22.9153 134.68 21.2154 130.364 21.3211C127.252 21.3972 124.487 22.592 122.019 24.6763C119.315 26.9592 117.835 29.8264 117.35 33.1683C116.809 36.8952 117.849 40.3545 120.235 43.2826C123.673 47.5028 128.959 49.4296 134.173 47.9453C140.194 46.231 143.544 41.9739 144.312 35.8839C144.751 32.4098 143.463 29.2208 141.152 26.2632Z" fill="#4ED4E1"/>
<path d="M80.5048 47.373C84.6738 46.7704 88.5935 47.4454 92.4352 48.4899C99.2633 50.3464 105.083 53.9837 109.694 59.3184C114.11 64.4267 116.905 70.3578 117.99 77.1152C118.881 82.6682 118.609 88.1482 116.909 93.4134C114.586 100.607 110.485 106.644 104.293 111.271C99.8237 114.611 94.9132 116.825 89.5514 117.875C84.1055 118.942 78.5897 118.715 73.1938 117.173C66.3905 115.229 60.5516 111.655 55.9426 106.319C51.5294 101.209 48.735 95.2786 47.6537 88.519C46.7652 82.9649 47.0356 77.4835 48.7382 72.2212C51.0644 65.0312 55.162 58.988 61.3603 54.3682C65.7877 51.0683 70.6767 49.04 75.9455 47.7724C77.3649 47.4309 78.8819 47.4951 80.5048 47.373Z" fill="#4ED4E1"/>
</g>
<defs>
<clipPath id="clip0_639_39">
<rect width="165" height="165" fill="white"/>
</clipPath>
</defs>
</svg>
