<svg width="165" height="165" viewBox="0 0 165 165" fill="none" xmlns="http://www.w3.org/2000/svg">
<path d="M1.5651e-08 152.432C-1.91794e-06 105.803 -1.91125e-06 59.1744 0.116617 12.365C0.361218 12.0193 0.552231 11.8732 0.60784 11.6868C1.64055 8.22467 3.48916 5.27704 6.55469 3.34269C8.64492 2.02376 10.9847 1.10029 13.2129 0C59.3044 0 105.396 1.92085e-08 151.677 0.12116C155.818 0.993659 159.128 2.93503 161.401 6.2013C162.888 8.33842 163.82 10.8623 165 13.2129C165 59.3044 165 105.396 164.879 151.677C164.006 155.818 162.065 159.128 158.799 161.401C156.662 162.888 154.138 163.82 151.787 165C105.696 165 59.6041 165 13.3226 164.879C8.56484 163.825 5.01593 161.385 2.5809 157.424C1.6025 155.833 0.853442 154.1 1.5651e-08 152.432ZM140.185 139.322C140.185 124.178 140.269 109.033 140.116 93.8905C140.085 90.8033 139.456 87.6388 138.585 84.6615C136.978 79.1683 133.74 74.6897 129.26 71.0515C124.225 66.9623 118.486 64.79 112.081 64.5031C109.112 64.3701 106.201 65.1052 103.403 66.2333C99.6957 67.7275 96.3722 69.7433 93.6953 72.7518C92.729 73.8379 91.7383 74.9022 90.5491 76.2063C90.5491 72.6601 90.5491 69.4214 90.5491 66.1314C82.3438 66.1314 74.265 66.1314 66.1284 66.1314C66.1284 90.8181 66.1284 115.438 66.1284 140.122C74.2711 140.122 82.3499 140.122 90.5566 140.122C90.5566 139.537 90.5566 139.015 90.5566 138.492C90.5566 124.959 90.5674 111.426 90.5505 97.8935C90.545 93.4434 91.8696 89.6356 95.4612 86.7618C98.4485 84.3716 101.947 83.3859 105.506 84.2535C111.989 85.8338 115.662 90.5639 115.682 97.3969C115.721 111.091 115.693 124.785 115.693 138.479C115.693 139.041 115.693 139.603 115.693 140.186C123.658 140.186 131.391 140.193 139.123 140.162C139.477 140.161 139.831 139.817 140.185 139.322ZM49.3066 96.1963C49.3066 86.1757 49.3066 76.1551 49.3066 66.1574C41.0423 66.1574 32.9628 66.1574 24.9067 66.1574C24.9067 90.8719 24.9067 115.493 24.9067 140.093C33.0788 140.093 41.1583 140.093 49.3066 140.093C49.3066 125.506 49.3066 111.012 49.3066 96.1963ZM46.3841 48.5296C46.9141 47.9967 47.4761 47.4916 47.9689 46.9263C51.5199 42.8525 52.5731 38.1784 51.1389 32.9908C50.2343 29.7184 48.3715 26.9444 45.5161 25.1769C43.5442 23.9563 41.2165 22.951 38.9421 22.6511C33.7719 21.9694 29.3208 23.7295 25.8736 27.7765C22.8741 31.298 21.9484 35.4691 22.7182 39.847C23.3589 43.4903 25.3023 46.5896 28.3851 48.876C31.0826 50.8767 34.1762 51.8518 37.4075 51.804C40.5818 51.757 43.6214 50.7153 46.3841 48.5296Z" fill="#4ED4E1"/>
</svg>
