<svg width="247" height="216" viewBox="0 0 247 216" fill="none" xmlns="http://www.w3.org/2000/svg">
<path d="M17.82 176.555C20.8633 176.555 23.265 176.903 25.025 177.6C26.8217 178.297 28.105 179.507 28.875 181.23C29.645 182.917 30.03 185.318 30.03 188.435C30.03 191.552 29.645 193.972 28.875 195.695C28.1417 197.418 26.9133 198.628 25.19 199.325C23.5033 199.985 21.23 200.315 18.37 200.315C16.83 200.315 15.345 200.278 13.915 200.205C12.5217 200.132 11.2383 200.04 10.065 199.93C8.89167 199.783 7.88333 199.637 7.04 199.49C6.23333 199.343 5.665 199.215 5.335 199.105L5.5 196.135C7.44333 196.135 9.46 196.135 11.55 196.135C13.64 196.135 15.7117 196.135 17.765 196.135C19.5983 196.098 21.0467 195.878 22.11 195.475C23.21 195.035 23.98 194.265 24.42 193.165C24.8967 192.028 25.135 190.452 25.135 188.435C25.135 186.382 24.8967 184.805 24.42 183.705C23.98 182.605 23.21 181.835 22.11 181.395C21.0467 180.955 19.5983 180.735 17.765 180.735C14.7583 180.735 12.155 180.753 9.955 180.79C7.79167 180.827 6.325 180.882 5.555 180.955L4.785 177.05C6.17833 176.903 7.48 176.793 8.69 176.72C9.9 176.647 11.22 176.61 12.65 176.61C14.08 176.573 15.8033 176.555 17.82 176.555ZM9.625 177.05V215H4.785V177.05H9.625ZM50.8114 176.335C53.5614 176.335 55.8897 176.665 57.7964 177.325C59.7397 177.985 61.2797 179.085 62.4164 180.625C63.5897 182.128 64.4331 184.145 64.9464 186.675C65.4964 189.205 65.7714 192.322 65.7714 196.025C65.7714 199.728 65.4964 202.845 64.9464 205.375C64.4331 207.905 63.5897 209.94 62.4164 211.48C61.2797 212.983 59.7397 214.065 57.7964 214.725C55.8897 215.385 53.5614 215.715 50.8114 215.715C48.0614 215.715 45.7147 215.385 43.7714 214.725C41.8647 214.065 40.3247 212.983 39.1514 211.48C37.9781 209.94 37.1164 207.905 36.5664 205.375C36.0531 202.845 35.7964 199.728 35.7964 196.025C35.7964 192.322 36.0531 189.205 36.5664 186.675C37.1164 184.145 37.9781 182.128 39.1514 180.625C40.3247 179.085 41.8647 177.985 43.7714 177.325C45.7147 176.665 48.0614 176.335 50.8114 176.335ZM50.8114 180.68C48.3181 180.68 46.3381 181.157 44.8714 182.11C43.4414 183.063 42.4147 184.658 41.7914 186.895C41.2047 189.095 40.9114 192.138 40.9114 196.025C40.9114 199.875 41.2047 202.918 41.7914 205.155C42.4147 207.392 43.4414 208.987 44.8714 209.94C46.3381 210.893 48.3181 211.37 50.8114 211.37C53.3047 211.37 55.2664 210.893 56.6964 209.94C58.1631 208.987 59.1897 207.392 59.7764 205.155C60.3997 202.918 60.7114 199.875 60.7114 196.025C60.7114 192.138 60.3997 189.095 59.7764 186.895C59.1897 184.658 58.1631 183.063 56.6964 182.11C55.2664 181.157 53.3047 180.68 50.8114 180.68ZM119.615 177.05L111.915 213.57C111.805 213.973 111.585 214.322 111.255 214.615C110.925 214.872 110.503 215 109.99 215H104.49C104.013 215 103.591 214.872 103.225 214.615C102.895 214.322 102.693 213.955 102.62 213.515L96.6797 184.97C96.533 184.237 96.3864 183.522 96.2397 182.825C96.093 182.092 95.9464 181.377 95.7997 180.68H94.6447C94.498 181.377 94.3514 182.092 94.2047 182.825C94.0947 183.558 93.9664 184.273 93.8197 184.97L87.9347 213.515C87.8247 213.955 87.5864 214.322 87.2197 214.615C86.8897 214.872 86.4864 215 86.0097 215H80.4547C79.978 215 79.5564 214.872 79.1897 214.615C78.8597 214.322 78.658 213.973 78.5847 213.57L70.8847 177.05H75.9997L81.9397 206.64C82.0864 207.337 82.2147 208.088 82.3247 208.895C82.4347 209.665 82.563 210.472 82.7097 211.315H83.9747C84.1214 210.472 84.268 209.665 84.4147 208.895C84.5614 208.125 84.708 207.373 84.8547 206.64L90.7397 178.645C90.813 178.168 91.0147 177.783 91.3447 177.49C91.7114 177.197 92.133 177.05 92.6097 177.05H97.8897C98.3664 177.05 98.7697 177.197 99.0997 177.49C99.4297 177.783 99.6497 178.168 99.7597 178.645L105.645 206.64C105.828 207.447 105.975 208.235 106.085 209.005C106.231 209.775 106.341 210.545 106.415 211.315H107.79C107.9 210.545 108.01 209.775 108.12 209.005C108.23 208.198 108.358 207.428 108.505 206.695L114.5 177.05H119.615ZM133.103 176.995C134.936 176.995 136.77 176.995 138.603 176.995C140.473 176.995 142.306 177.032 144.103 177.105C145.936 177.142 147.696 177.215 149.383 177.325L149.163 181.12H133.928C132.791 181.12 131.948 181.413 131.398 182C130.885 182.55 130.628 183.467 130.628 184.75V207.3C130.628 208.583 130.885 209.518 131.398 210.105C131.948 210.692 132.791 210.985 133.928 210.985H149.163L149.383 214.725C147.696 214.835 145.936 214.908 144.103 214.945C142.306 214.982 140.473 215 138.603 215C136.77 215.037 134.936 215.055 133.103 215.055C130.866 215.055 129.088 214.468 127.768 213.295C126.485 212.085 125.825 210.472 125.788 208.455V183.595C125.825 181.542 126.485 179.928 127.768 178.755C129.088 177.582 130.866 176.995 133.103 176.995ZM126.778 193H147.018V196.905H126.778V193ZM169.984 176.555C172.918 176.555 175.283 176.885 177.079 177.545C178.876 178.168 180.178 179.268 180.984 180.845C181.828 182.422 182.249 184.64 182.249 187.5C182.249 189.553 182.011 191.277 181.534 192.67C181.058 194.027 180.306 195.09 179.279 195.86C178.289 196.593 176.951 197.07 175.264 197.29V197.565C175.888 197.712 176.493 198.023 177.079 198.5C177.703 198.94 178.271 199.545 178.784 200.315C179.298 201.048 179.683 201.947 179.939 203.01L183.624 215H178.454L175.099 203.12C174.623 201.69 173.981 200.682 173.174 200.095C172.368 199.472 171.323 199.16 170.039 199.16C167.803 199.16 165.859 199.16 164.209 199.16C162.559 199.123 161.184 199.087 160.084 199.05C158.984 199.013 158.104 198.995 157.444 198.995L157.609 194.98H169.874C171.744 194.943 173.211 194.723 174.274 194.32C175.374 193.917 176.163 193.202 176.639 192.175C177.116 191.112 177.354 189.645 177.354 187.775C177.354 185.905 177.116 184.475 176.639 183.485C176.163 182.458 175.374 181.743 174.274 181.34C173.211 180.937 171.744 180.735 169.874 180.735C166.868 180.735 164.264 180.753 162.064 180.79C159.901 180.827 158.434 180.845 157.664 180.845L156.894 177.05C158.288 176.903 159.589 176.793 160.799 176.72C162.009 176.647 163.329 176.61 164.759 176.61C166.226 176.573 167.968 176.555 169.984 176.555ZM161.679 177.05V215H156.894V177.05H161.679ZM215.459 176.61C218.576 176.61 221.051 176.903 222.884 177.49C224.718 178.04 226.038 179.03 226.844 180.46C227.688 181.89 228.109 183.907 228.109 186.51C228.109 189.223 227.596 191.295 226.569 192.725C225.579 194.155 223.948 194.98 221.674 195.2V195.42C224.498 195.677 226.459 196.667 227.559 198.39C228.696 200.113 229.264 202.497 229.264 205.54C229.264 208.143 228.861 210.16 228.054 211.59C227.248 213.02 225.946 214.028 224.149 214.615C222.389 215.165 220.061 215.44 217.164 215.44C215.001 215.44 213.131 215.422 211.554 215.385C210.014 215.385 208.584 215.348 207.264 215.275C205.944 215.202 204.569 215.11 203.139 215L203.909 211.15C204.716 211.187 206.238 211.223 208.474 211.26C210.748 211.297 213.388 211.315 216.394 211.315C218.411 211.315 219.988 211.15 221.124 210.82C222.298 210.453 223.123 209.793 223.599 208.84C224.113 207.887 224.369 206.512 224.369 204.715C224.369 202.735 224.113 201.213 223.599 200.15C223.086 199.087 222.224 198.335 221.014 197.895C219.804 197.455 218.154 197.217 216.064 197.18H203.854V193.495H216.009C217.843 193.458 219.291 193.275 220.354 192.945C221.454 192.578 222.243 191.937 222.719 191.02C223.196 190.067 223.434 188.747 223.434 187.06C223.434 185.337 223.178 184.017 222.664 183.1C222.151 182.183 221.289 181.56 220.079 181.23C218.906 180.9 217.293 180.735 215.239 180.735C213.443 180.735 211.829 180.735 210.399 180.735C208.969 180.735 207.704 180.753 206.604 180.79C205.541 180.79 204.643 180.827 203.909 180.9L203.139 177.05C204.423 176.903 205.633 176.812 206.769 176.775C207.943 176.702 209.208 176.665 210.564 176.665C211.958 176.628 213.589 176.61 215.459 176.61ZM207.869 177.05V215H203.139V177.05H207.869ZM242.086 177.05V215H237.246V177.05H242.086Z" fill="#4ED4E1"/>
<path d="M199.46 83.6215C199.459 107.293 199.519 130.571 199.43 153.85C199.393 163.736 189.404 169.525 180.036 165.252C176.028 163.424 173.623 160.48 172.975 156.443C172.728 154.898 172.619 153.322 172.618 151.76C172.598 119.849 172.592 87.9393 172.611 56.0292C172.615 48.5316 175.453 44.0649 181.309 42.0991C190.213 39.1104 199.258 44.6494 199.416 53.4123C199.595 63.3488 199.459 73.29 199.46 83.6215Z" fill="#4ED4E1"/>
<path d="M132.17 96.9227C136.004 90.9722 141.565 88.5884 147.806 90.0239C153.938 91.4345 157.656 96.157 157.663 102.666C157.683 119.778 157.685 136.889 157.663 154.001C157.653 161.375 152.593 166.563 145.184 166.893C137.47 167.236 131.155 162.462 131.018 155.052C130.685 137.162 130.891 119.264 130.966 101.37C130.972 99.9754 131.643 98.5835 132.17 96.9227Z" fill="#4ED4E1"/>
<path d="M90.2188 159.318C89.82 157.221 89.2821 155.423 89.2776 153.624C89.2207 130.614 89.2094 107.603 89.2563 84.5924C89.2736 76.1247 95.4777 70.7555 104.178 71.4876C110.731 72.0389 115.969 76.9045 115.994 83.0076C116.093 107.064 116.08 131.121 116.002 155.177C115.984 160.694 111.769 165.28 106.029 166.598C99.695 168.051 94.07 165.55 90.2188 159.318Z" fill="#4ED4E1"/>
<path d="M74.3954 133.864C74.3953 140.784 74.4395 147.316 74.3834 153.848C74.3176 161.503 68.7846 166.887 61.0502 166.924C53.1631 166.961 47.6675 161.755 47.6061 154.029C47.5365 145.276 47.536 136.523 47.6062 127.771C47.6682 120.054 53.1897 114.833 61.0626 114.888C68.7872 114.941 74.2901 120.343 74.3914 127.989C74.4157 129.818 74.3953 131.647 74.3954 133.864Z" fill="#4ED4E1"/>
<path d="M210.091 144.514V145.423L210.996 145.51C220.943 146.461 229.643 144.006 235.877 139.038C242.121 134.061 245.821 126.612 245.827 117.747C245.832 111.105 245.831 104.462 245.829 97.692C245.829 94.6018 245.828 91.4853 245.828 88.3303C245.828 82.2704 245.829 76.2464 245.829 70.2474C245.831 56.445 245.832 42.7753 245.827 29.1057C245.823 20.8384 242.657 13.7907 237.177 8.81754C231.704 3.85103 223.985 1.00771 214.953 1.00644C154.036 0.997886 93.1196 0.997802 32.2028 1.00649C23.226 1.00778 15.4702 3.84057 9.93656 8.78693C4.39498 13.7404 1.13765 20.7664 1.09972 29.0206C0.96391 58.5702 0.971304 88.1208 1.09466 117.67C1.13182 126.574 4.87812 134.032 11.1021 139.022C17.3162 144.004 25.9376 146.478 35.674 145.571L36.5812 145.487V144.575V144.559V144.542V144.526V144.509V144.493V144.476V144.46V144.443V144.427V144.41V144.394V144.377V144.361V144.344V144.328V144.311V144.295V144.278V144.262V144.245V144.229V144.212V144.195V144.179V144.162V144.146V144.129V144.113V144.096V144.08V144.063V144.047V144.03V144.014V143.997V143.981V143.964V143.948V143.931V143.915V143.898V143.882V143.865V143.848V143.832V143.815V143.799V143.782V143.766V143.749V143.733V143.716V143.7V143.683V143.667V143.65V143.634V143.617V143.6V143.584V143.567V143.551V143.534V143.518V143.501V143.485V143.468V143.452V143.435V143.418V143.402V143.385V143.369V143.352V143.336V143.319V143.303V143.286V143.27V143.253V143.236V143.22V143.203V143.187V143.17V143.154V143.137V143.121V143.104V143.087V143.071V143.054V143.038V143.021V143.005V142.988V142.972V142.955V142.938V142.922V142.905V142.889V142.872V142.856V142.839V142.822V142.806V142.789V142.773V142.756V142.74V142.723V142.706V142.69V142.673V142.657V142.64V142.623V142.607V142.59V142.574V142.557V142.541V142.524V142.507V142.491V142.474V142.458V142.441V142.424V142.408V142.391V142.375V142.358V142.341V142.325V142.308V142.292V142.275V142.258V142.242V142.225V142.209V142.192V142.175V142.159V142.142V142.126V142.109V142.092V142.076V142.059V142.042V142.026V142.009V141.993V141.976V141.959V141.943V141.926V141.909V141.893V141.876V141.86V141.843V141.826V141.81V141.793V141.776V141.76V141.743V141.726V141.71V141.693V141.676V141.66V141.643V141.627V141.61V141.593V141.577V141.56V141.543V141.527V141.51V141.493V141.477V141.46V141.443V141.427V141.41V141.393V141.377V141.36V141.343V141.327V141.31V141.293V141.277V141.26V141.243V141.227V141.21V141.193V141.176V141.16V141.143V141.126V141.11V141.093V141.076V141.06V141.043V141.026V141.009V140.993V140.976V140.959V140.943V140.926V140.909V140.893V140.876V140.859V140.842V140.826V140.809V140.792V140.775V140.759V140.742V140.725V140.709V140.692V140.675V140.658V140.642V140.625V140.608V140.591V140.575V140.558V140.541V140.524V140.508V140.491V140.474V140.457V140.441V140.424V140.407V140.39V140.374V140.357V140.34V140.323V140.306V140.29V140.273V140.256V140.239V140.223V140.206V140.189V140.172V140.155V140.139V140.122V140.105V140.088V140.071V140.055V140.038V140.021V140.004V139.987V139.971V139.954V139.937V139.92V139.903V139.887V139.87V139.853V139.836V139.819V139.802V139.786V139.769V139.752V139.735V139.718V139.701V139.685V139.668V139.651V139.634V139.617V139.6V139.583V139.567V139.55V139.533V139.516V139.499V139.482V139.465V139.449V139.432V139.415V139.398V139.381V139.364V139.347V139.33V139.313V139.297V139.28V139.263V139.246V139.229V139.212V139.195V139.178V139.161V139.144V139.128V139.111V139.094V139.077V139.06V139.043V139.026V139.009V138.992V138.975V138.958V138.941V138.924V138.907V138.891V138.874V138.857V138.84V138.823V138.806V138.789V138.772V138.755V138.738V138.721V138.704V138.687V138.67V138.653V138.636V138.619V138.602V138.585V138.568V138.551V138.534V138.517V138.5V138.483V138.466V138.449V138.432V138.415V138.398V138.381V138.364V138.347V138.33V138.313V138.296V138.279V138.262V138.245V138.228V138.211V138.194V138.177V138.16V138.143V138.125V138.108V138.091V138.074V138.057V138.04V138.023V138.006V137.989V137.972V137.955V137.938V137.921V137.904V137.886V137.869V137.852V137.835V137.818V137.801V137.784V137.767V137.75V137.732V137.715V137.698V137.681V137.664V137.647V137.63V137.613V137.595V137.578V137.561V137.544V137.527V137.51V137.493V137.475V137.458V137.441V137.424V137.407V137.39V137.372V137.355V137.338V137.321V137.304V137.286V137.269V137.252V137.235V137.218V137.2V137.183V137.166V137.149V137.132V137.114V137.097V137.08V137.063V137.046V137.028V137.011V136.994V136.977V136.959V136.942V136.925V136.908V136.89V136.873V136.856V136.839V136.821V136.804V136.787V136.769V136.752V136.735V136.718V136.7V136.683V136.666V136.648V136.631V136.614V136.596V136.579V136.562V136.544V136.527V136.51V136.493V136.475V136.458V136.441V136.423V136.406V136.388V136.371V136.354V136.336V136.319V136.302V136.284V136.267V136.25V136.232V136.215V136.197V136.18V136.163V136.145V136.128V136.11V136.093V136.076V136.058V136.041V136.023V136.006V135.989V135.971V135.954V135.018L35.6476 134.956C35.3161 134.934 34.9991 134.911 34.6925 134.888C34.0592 134.841 33.4708 134.798 32.8935 134.776C26.209 134.526 21.3469 132.822 18.1587 129.833C14.988 126.86 13.3223 122.474 13.3222 116.521C13.3221 111.55 13.3217 106.579 13.3214 101.607C13.3197 77.5546 13.3181 53.5024 13.3441 29.4501C13.3461 27.6342 13.3967 25.8846 13.8475 24.2949C14.9928 20.2561 17.2473 17.2333 20.5332 15.2024C23.8399 13.1586 28.2625 12.0764 33.7919 12.0756C93.5564 12.0662 153.321 12.0671 213.086 12.074C220.188 12.0748 225.341 13.7029 228.715 16.771C232.072 19.823 233.837 24.4548 233.838 30.8446C233.843 59.2149 233.846 87.5847 233.826 115.955C233.825 117.763 233.766 119.545 233.498 121.271C232.454 128.008 226.168 133.652 218.602 134.459C216.995 134.63 215.394 134.732 213.657 134.843C212.815 134.897 211.941 134.953 211.019 135.019L210.091 135.086V136.017V136.026V136.035V136.044V136.053V136.062V136.071V136.08V136.089V136.099V136.108V136.117V136.126V136.135V136.144V136.153V136.162V136.171V136.18V136.189V136.198V136.207V136.216V136.226V136.235V136.244V136.253V136.262V136.271V136.28V136.289V136.298V136.307V136.316V136.325V136.334V136.343V136.352V136.361V136.37V136.379V136.388V136.397V136.406V136.415V136.424V136.433V136.442V136.451V136.46V136.469V136.478V136.486V136.495V136.504V136.513V136.522V136.531V136.54V136.549V136.558V136.567V136.576V136.585V136.594V136.603V136.611V136.62V136.629V136.638V136.647V136.656V136.665V136.674V136.683V136.692V136.7V136.709V136.718V136.727V136.736V136.745V136.754V136.762V136.771V136.78V136.789V136.798V136.807V136.816V136.824V136.833V136.842V136.851V136.86V136.869V136.877V136.886V136.895V136.904V136.913V136.921V136.93V136.939V136.948V136.957V136.965V136.974V136.983V136.992V137.001V137.009V137.018V137.027V137.036V137.045V137.053V137.062V137.071V137.08V137.088V137.097V137.106V137.115V137.123V137.132V137.141V137.15V137.158V137.167V137.176V137.185V137.193V137.202V137.211V137.219V137.228V137.237V137.246V137.254V137.263V137.272V137.28V137.289V137.298V137.306V137.315V137.324V137.333V137.341V137.35V137.359V137.367V137.376V137.385V137.393V137.402V137.411V137.419V137.428V137.437V137.445V137.454V137.463V137.471V137.48V137.488V137.497V137.506V137.514V137.523V137.532V137.54V137.549V137.558V137.566V137.575V137.583V137.592V137.601V137.609V137.618V137.626V137.635V137.644V137.652V137.661V137.669V137.678V137.687V137.695V137.704V137.712V137.721V137.73V137.738V137.747V137.755V137.764V137.772V137.781V137.79V137.798V137.807V137.815V137.824V137.832V137.841V137.849V137.858V137.867V137.875V137.884V137.892V137.901V137.909V137.918V137.926V137.935V137.943V137.952V137.96V137.969V137.978V137.986V137.995V138.003V138.012V138.02V138.029V138.037V138.046V138.054V138.063V138.071V138.08V138.088V138.097V138.105V138.114V138.122V138.131V138.139V138.148V138.156V138.165V138.173V138.181V138.19V138.198V138.207V138.215V138.224V138.232V138.241V138.249V138.258V138.266V138.275V138.283V138.292V138.3V138.308V138.317V138.325V138.334V138.342V138.351V138.359V138.368V138.376V138.384V138.393V138.401V138.41V138.418V138.427V138.435V138.443V138.452V138.46V138.469V138.477V138.486V138.494V138.502V138.511V138.519V138.528V138.536V138.544V138.553V138.561V138.57V138.578V138.586V138.595V138.603V138.612V138.62V138.628V138.637V138.645V138.654V138.662V138.67V138.679V138.687V138.695V138.704V138.712V138.721V138.729V138.737V138.746V138.754V138.762V138.771V138.779V138.788V138.796V138.804V138.813V138.821V138.829V138.838V138.846V138.854V138.863V138.871V138.879V138.888V138.896V138.905V138.913V138.921V138.93V138.938V138.946V138.955V138.963V138.971V138.98V138.988V138.996V139.005V139.013V139.021V139.03V139.038V139.046V139.055V139.063V139.071V139.08V139.088V139.096V139.105V139.113V139.121V139.13V139.138V139.146V139.154V139.163V139.171V139.179V139.188V139.196V139.204V139.213V139.221V139.229V139.238V139.246V139.254V139.262V139.271V139.279V139.287V139.296V139.304V139.312V139.321V139.329V139.337V139.345V139.354V139.362V139.37V139.379V139.387V139.395V139.403V139.412V139.42V139.428V139.437V139.445V139.453V139.461V139.47V139.478V139.486V139.495V139.503V139.511V139.519V139.528V139.536V139.544V139.553V139.561V139.569V139.577V139.586V139.594V139.602V139.61V139.619V139.627V139.635V139.643V139.652V139.66V139.668V139.677V139.685V139.693V139.701V139.71V139.718V139.726V139.734V139.743V139.751V139.759V139.767V139.776V139.784V139.792V139.8V139.809V139.817V139.825V139.833V139.842V139.85V139.858V139.866V139.875V139.883V139.891V139.9V139.908V139.916V139.924V139.933V139.941V139.949V139.957V139.965V139.974V139.982V139.99V139.998V140.007V140.015V140.023V140.031V140.04V140.048V140.056V140.064V140.073V140.081V140.089V140.097V140.106V140.114V140.122V140.13V140.139V140.147V140.155V140.163V140.172V140.18V140.188V140.196V140.205V140.213V140.221V140.229V140.238V140.246V140.254V140.262V140.271V140.279V140.287V140.295V140.303V140.312V140.32V140.328V140.336V140.345V140.353V140.361V140.369V140.378V140.386V140.394V140.402V140.41V140.419V140.427V140.435V140.443V140.451V140.459V140.468V140.476V140.484V140.492V140.5V140.508V140.516V140.525V140.533V140.541V140.549V140.557V140.565V140.574V140.582V140.59V140.598V140.606V140.614V140.623V140.631V140.639V140.647V140.655V140.663V140.672V140.68V140.688V140.696V140.704V140.712V140.721V140.729V140.737V140.745V140.753V140.761V140.77V140.778V140.786V140.794V140.802V140.81V140.819V140.827V140.835V140.843V140.851V140.859V140.867V140.876V140.884V140.892V140.9V140.908V140.916V140.925V140.933V140.941V140.949V140.957V140.965V140.974V140.982V140.99V140.998V141.006V141.014V141.022V141.031V141.039V141.047V141.055V141.063V141.071V141.08V141.088V141.096V141.104V141.112V141.12V141.128V141.137V141.145V141.153V141.161V141.169V141.177V141.186V141.194V141.202V141.21V141.218V141.226V141.234V141.243V141.251V141.259V141.267V141.275V141.283V141.292V141.3V141.308V141.316V141.324V141.332V141.34V141.349V141.357V141.365V141.373V141.381V141.389V141.397V141.406V141.414V141.422V141.43V141.438V141.446V141.454V141.463V141.471V141.479V141.487V141.495V141.503V141.511V141.52V141.528V141.536V141.544V141.552V141.56V141.568V141.577V141.585V141.593V141.601V141.609V141.617V141.625V141.634V141.642V141.65V141.658V141.666V141.674V141.682V141.691V141.699V141.707V141.715V141.723V141.731V141.739V141.747V141.756V141.764V141.772V141.78V141.788V141.796V141.804V141.812V141.821V141.829V141.837V141.845V141.853V141.861V141.869V141.878V141.886V141.894V141.902V141.91V141.918V141.926V141.934V141.943V141.951V141.959V141.967V141.975V141.983V141.991V141.999V142.007V142.016V142.024V142.032V142.04V142.048V142.056V142.064V142.072V142.081V142.089V142.097V142.105V142.113V142.121V142.129V142.137V142.145V142.154V142.162V142.17V142.178V142.186V142.194V142.202V142.21V142.218V142.226V142.235V142.243V142.251V142.259V142.267V142.275V142.283V142.291V142.299V142.307V142.316V142.324V142.332V142.34V142.348V142.356V142.364V142.372V142.38V142.388V142.397V142.405V142.413V142.421V142.429V142.437V142.445V142.453V142.461V142.469V142.477V142.486V142.494V142.502V142.51V142.518V142.526V142.534V142.542V142.55V142.558V142.566V142.574V142.583V142.591V142.599V142.607V142.615V142.623V142.631V142.639V142.647V142.655V142.663V142.671V142.679V142.688V142.696V142.704V142.712V142.72V142.728V142.736V142.744V142.752V142.76V142.768V142.776V142.784V142.792V142.8V142.809V142.817V142.825V142.833V142.841V142.849V142.857V142.865V142.873V142.881V142.889V142.897V142.905V142.913V142.921V142.929V142.937V142.945V142.954V142.962V142.97V142.978V142.986V142.994V143.002V143.01V143.018V143.026V143.034V143.042V143.05V143.058V143.066V143.074V143.082V143.09V143.098V143.106V143.114V143.122V143.13V143.138V143.146V143.155V143.163V143.171V143.179V143.187V143.195V143.203V143.211V143.219V143.227V143.235V143.243V143.251V143.259V143.267V143.275V143.283V143.291V143.299V143.307V143.315V143.323V143.331V143.339V143.347V143.355V143.363V143.371V143.379V143.387V143.395V143.403V143.411V143.419V143.427V143.435V143.443V143.451V143.459V143.467V143.475V143.483V143.491V143.499V143.507V143.515V143.523V143.531V143.539V143.547V143.555V143.563V143.571V143.579V143.587V143.595V143.603V143.611V143.619V143.627V143.635V143.643V143.651V143.659V143.667V143.675V143.683V143.691V143.699V143.707V143.715V143.723V143.73V143.738V143.746V143.754V143.762V143.77V143.778V143.786V143.794V143.802V143.81V143.818V143.826V143.834V143.842V143.85V143.858V143.866V143.874V143.882V143.89V143.898V143.906V143.913V143.921V143.929V143.937V143.945V143.953V143.961V143.969V143.977V143.985V143.993V144.001V144.009V144.017V144.025V144.033V144.04V144.048V144.056V144.064V144.072V144.08V144.088V144.096V144.104V144.112V144.12V144.128V144.135V144.143V144.151V144.159V144.167V144.175V144.183V144.191V144.199V144.207V144.215V144.223V144.23V144.238V144.246V144.254V144.262V144.27V144.278V144.286V144.294V144.301V144.309V144.317V144.325V144.333V144.341V144.349V144.357V144.365V144.372V144.38V144.388V144.396V144.404V144.412V144.42V144.428V144.436V144.443V144.451V144.459V144.467V144.475V144.483V144.491V144.498V144.506V144.514Z" fill="#4ED4E1" stroke="#4ED4E1" stroke-width="2"/>
</svg>
