<svg width="258" height="193" viewBox="0 0 258 193" fill="none" xmlns="http://www.w3.org/2000/svg">
<path d="M209.684 95.4726C209.684 123.161 209.747 150.39 209.653 177.618C209.613 189.182 199.006 195.953 189.058 190.955C184.802 188.817 182.248 185.374 181.561 180.651C181.298 178.844 181.182 177.001 181.181 175.173C181.16 137.848 181.154 100.523 181.174 63.1979C181.178 54.428 184.191 49.2033 190.411 46.9039C199.866 43.4081 209.47 49.887 209.638 60.1369C209.828 71.7596 209.683 83.3878 209.684 95.4726Z" fill="#4ED4E1"/>
<path d="M138.224 111.031C142.295 104.071 148.201 101.282 154.828 102.961C161.339 104.611 165.288 110.135 165.296 117.749C165.316 137.764 165.319 157.78 165.295 177.795C165.285 186.42 159.911 192.489 152.044 192.875C143.852 193.276 137.147 187.692 137.001 179.024C136.647 158.099 136.867 137.164 136.946 116.233C136.952 114.602 137.665 112.973 138.224 111.031Z" fill="#4ED4E1"/>
<path d="M93.6752 184.015C93.2517 181.562 92.6805 179.459 92.6757 177.354C92.6153 150.439 92.6033 123.523 92.6531 96.6081C92.6715 86.7035 99.2596 80.4232 108.499 81.2795C115.457 81.9244 121.019 87.6156 121.045 94.7545C121.151 122.893 121.137 151.032 121.054 179.171C121.035 185.624 116.559 190.989 110.464 192.53C103.738 194.23 97.7647 191.304 93.6752 184.015Z" fill="#4ED4E1"/>
<path d="M76.8799 154.241C76.8798 162.335 76.9268 169.976 76.8672 177.616C76.7974 186.57 70.9219 192.868 62.7087 192.911C54.3335 192.955 48.4978 186.865 48.4325 177.827C48.3586 167.59 48.3581 157.351 48.4327 147.114C48.4985 138.088 54.3618 131.981 62.722 132.044C70.9247 132.107 76.7682 138.426 76.8758 147.369C76.9015 149.508 76.8798 151.647 76.8799 154.241Z" fill="#4ED4E1"/>
<path d="M257.858 100.98C257.858 112.756 257.863 124.072 257.856 135.388C257.844 155.436 242.7 168.875 222.032 166.698C222.032 165.129 222.032 163.499 222.032 161.869C222.032 160.225 222.032 158.58 222.032 156.759C224.99 156.523 227.565 156.399 230.12 156.099C238.569 155.108 245.683 148.162 246.875 139.69C247.172 137.582 247.235 135.427 247.236 133.293C247.257 100.108 247.255 66.9238 247.249 33.7392C247.247 18.3657 239.517 10.6157 224.15 10.6138C160.687 10.6058 97.2231 10.6047 33.7594 10.6157C21.7588 10.6177 14.1269 15.7847 11.5592 25.7592C11.0359 27.7918 10.9864 29.9867 10.9844 32.1071C10.951 66.0563 10.9604 100.006 10.961 133.955C10.9613 148.321 18.283 155.88 32.7659 156.477C33.6564 156.514 34.5447 156.603 35.6596 156.685C35.6596 160.165 35.6596 163.473 35.6596 166.77C15.4489 168.844 0.176818 155.431 0.100505 135.294C-0.0304694 100.733 -0.0383189 66.1716 0.105876 31.6112C0.183751 12.9451 13.4514 0.0105237 32.0723 0.00759675C96.7593 -0.002571 161.446 -0.00247248 226.133 0.00753373C244.871 0.0104332 257.849 12.9935 257.856 31.7058C257.864 54.6443 257.858 77.5828 257.858 100.98Z" fill="#4ED4E1"/>
</svg>
