<svg width="490" height="367" viewBox="0 0 490 367" fill="none" xmlns="http://www.w3.org/2000/svg">
<path d="M397.879 181.429C397.878 233.87 397.998 285.443 397.819 337.015C397.744 358.916 377.653 371.742 358.812 362.275C350.752 358.225 345.914 351.704 344.612 342.759C344.114 339.337 343.895 335.844 343.893 332.384C343.853 261.689 343.841 190.994 343.879 120.3C343.888 103.689 349.595 93.7935 361.374 89.4384C379.282 82.8173 397.472 95.0885 397.79 114.502C398.15 136.516 397.877 158.54 397.879 181.429Z" fill="#4ED4E1"/>
<path d="M262.516 210.896C270.227 197.713 281.412 192.432 293.963 195.612C306.297 198.737 313.775 209.2 313.79 223.619C313.829 261.529 313.833 299.439 313.789 337.349C313.77 353.685 303.592 365.18 288.69 365.91C273.175 366.67 260.475 356.094 260.198 339.677C259.529 300.044 259.945 260.392 260.095 220.748C260.106 217.659 261.456 214.575 262.516 210.896Z" fill="#4ED4E1"/>
<path d="M178.137 349.125C177.335 344.48 176.253 340.496 176.244 336.51C176.13 285.532 176.107 234.554 176.201 183.575C176.236 164.816 188.714 152.921 206.213 154.543C219.392 155.764 229.926 166.543 229.977 180.065C230.176 233.359 230.151 286.656 229.993 339.951C229.957 352.173 221.48 362.334 209.936 365.253C197.196 368.473 185.883 362.932 178.137 349.125Z" fill="#4ED4E1"/>
<path d="M146.343 292.734C146.343 308.065 146.432 322.536 146.319 337.006C146.186 353.966 135.058 365.895 119.502 365.976C103.639 366.058 92.5863 354.524 92.4627 337.407C92.3227 318.017 92.3218 298.625 92.4631 279.235C92.5876 262.139 103.693 250.573 119.527 250.693C135.063 250.811 146.131 262.78 146.335 279.718C146.384 283.77 146.343 287.822 146.343 292.734Z" fill="#4ED4E1"/>
<path d="M489.11 191.858C489.11 214.161 489.121 235.595 489.108 257.028C489.084 294.999 460.402 320.453 421.256 316.33C421.256 313.357 421.256 310.271 421.256 307.184C421.256 304.068 421.256 300.953 421.256 297.504C426.858 297.058 431.736 296.823 436.575 296.255C452.577 294.377 466.052 281.221 468.31 265.176C468.872 261.183 468.99 257.101 468.993 253.059C469.033 190.207 469.028 127.355 469.018 64.5022C469.013 35.3844 454.374 20.7058 425.268 20.7022C305.066 20.687 184.865 20.6849 64.6629 20.7057C41.9333 20.7096 27.4785 30.496 22.615 49.3879C21.624 53.2376 21.5303 57.3949 21.5263 61.4109C21.4632 125.711 21.481 190.012 21.4821 254.313C21.4826 281.523 35.3501 295.839 62.7811 296.97C64.4677 297.04 66.1502 297.21 68.2619 297.365C68.2619 303.955 68.2619 310.221 68.2619 316.465C29.9822 320.394 1.05658 294.99 0.912039 256.849C0.66397 191.391 0.649103 125.93 0.922212 60.4718C1.06971 25.1178 26.199 0.619297 61.4674 0.613754C183.986 0.594496 306.505 0.594682 429.024 0.613634C464.513 0.619126 489.095 25.2094 489.107 60.6509C489.122 104.097 489.11 147.543 489.11 191.858Z" fill="#4ED4E1"/>
</svg>
