<svg width="247" height="185" viewBox="0 0 247 185" fill="none" xmlns="http://www.w3.org/2000/svg">
<path d="M200.504 91.2911C200.503 117.766 200.564 143.803 200.474 169.838C200.436 180.895 190.293 187.37 180.781 182.591C176.712 180.547 174.269 177.254 173.612 172.739C173.361 171.011 173.25 169.248 173.249 167.501C173.229 131.81 173.223 96.1204 173.242 60.4303C173.246 52.0446 176.128 47.0488 182.074 44.8501C191.115 41.5075 200.299 47.7025 200.459 57.5034C200.641 68.617 200.503 79.7358 200.504 91.2911Z" fill="#4ED4E1"/>
<path d="M132.167 106.168C136.059 99.5124 141.706 96.8462 148.043 98.4518C154.269 100.03 158.045 105.311 158.052 112.591C158.072 131.73 158.074 150.869 158.052 170.008C158.042 178.254 152.904 184.058 145.381 184.426C137.548 184.81 131.136 179.471 130.996 171.182C130.659 151.174 130.868 131.156 130.944 111.142C130.95 109.582 131.632 108.025 132.167 106.168Z" fill="#4ED4E1"/>
<path d="M89.5676 175.953C89.1626 173.607 88.6164 171.596 88.6119 169.584C88.5541 143.848 88.5426 118.111 88.5902 92.3751C88.6078 82.9044 94.9073 76.8992 103.742 77.718C110.395 78.3347 115.713 83.7765 115.739 90.6026C115.839 117.508 115.826 144.415 115.747 171.321C115.729 177.491 111.449 182.621 105.621 184.094C99.1895 185.72 93.4779 182.923 89.5676 175.953Z" fill="#4ED4E1"/>
<path d="M73.5161 147.484C73.516 155.223 73.561 162.529 73.504 169.834C73.4372 178.397 67.8191 184.419 59.9657 184.46C51.9574 184.501 46.3772 178.678 46.3149 170.037C46.2442 160.248 46.2437 150.457 46.3151 140.668C46.3779 132.038 51.9844 126.199 59.9783 126.259C67.8218 126.319 73.4093 132.361 73.5121 140.913C73.5368 142.958 73.516 145.004 73.5161 147.484Z" fill="#4ED4E1"/>
<path d="M246.562 96.5567C246.562 107.816 246.568 118.637 246.561 129.458C246.549 148.627 232.068 161.477 212.306 159.396C212.306 157.895 212.306 156.337 212.306 154.779C212.306 153.206 212.306 151.633 212.306 149.892C215.134 149.666 217.597 149.548 220.039 149.261C228.118 148.313 234.921 141.671 236.061 133.571C236.345 131.555 236.404 129.494 236.406 127.454C236.426 95.723 236.423 63.9921 236.418 32.2612C236.416 17.5612 229.025 10.1507 214.331 10.1489C153.648 10.1412 92.9641 10.1401 32.2806 10.1506C20.8056 10.1526 13.5081 15.0932 11.0528 24.6308C10.5525 26.5743 10.5052 28.6731 10.5032 30.7006C10.4713 63.1626 10.4803 95.6246 10.4809 128.087C10.4811 141.824 17.4821 149.051 31.3305 149.622C32.182 149.657 33.0314 149.743 34.0975 149.821C34.0975 153.149 34.0975 156.312 34.0975 159.464C14.7721 161.448 0.169073 148.622 0.0961026 129.367C-0.0291346 96.3206 -0.0366403 63.2728 0.101238 30.2265C0.175702 12.3781 12.8622 0.0100627 30.6673 0.00726397C92.5207 -0.00245837 154.374 -0.00236417 216.227 0.00720371C234.144 0.00997613 246.554 12.4243 246.56 30.3169C246.568 52.2506 246.562 74.1842 246.562 96.5567Z" fill="#4ED4E1"/>
</svg>
