<svg width="324" height="242" viewBox="0 0 324 242" fill="none" xmlns="http://www.w3.org/2000/svg">
<path d="M262.92 119.712C262.919 154.429 262.999 188.572 262.881 222.713C262.831 237.213 249.53 245.703 237.057 239.436C231.721 236.755 228.518 232.438 227.656 226.516C227.326 224.251 227.181 221.939 227.18 219.647C227.154 172.846 227.146 126.045 227.171 79.243C227.177 68.2466 230.955 61.6954 238.753 58.8122C250.608 54.4289 262.651 62.5527 262.861 75.4049C263.1 89.9785 262.919 104.559 262.92 119.712Z" fill="#4ED4E1"/>
<path d="M173.318 139.22C178.422 130.493 185.827 126.996 194.136 129.102C202.301 131.171 207.252 138.097 207.262 147.643C207.287 172.741 207.29 197.838 207.261 222.935C207.249 233.749 200.51 241.36 190.645 241.843C180.374 242.346 171.966 235.345 171.783 224.476C171.34 198.238 171.615 171.987 171.714 145.742C171.722 143.697 172.616 141.656 173.318 139.22Z" fill="#4ED4E1"/>
<path d="M117.458 230.733C116.927 227.658 116.211 225.021 116.205 222.382C116.129 188.633 116.114 154.884 116.177 121.136C116.2 108.716 124.46 100.841 136.045 101.915C144.77 102.724 151.744 109.86 151.777 118.811C151.909 154.094 151.892 189.377 151.788 224.66C151.764 232.751 146.152 239.478 138.509 241.41C130.076 243.542 122.586 239.874 117.458 230.733Z" fill="#4ED4E1"/>
<path d="M96.3987 193.4C96.3985 203.55 96.4575 213.13 96.3828 222.71C96.2952 233.938 88.928 241.835 78.6296 241.888C68.128 241.943 60.8107 234.307 60.7289 222.975C60.6362 210.139 60.6356 197.3 60.7291 184.464C60.8116 173.146 68.1635 165.489 78.6462 165.568C88.9315 165.647 96.2585 173.57 96.3934 184.784C96.4257 187.466 96.3985 190.149 96.3987 193.4Z" fill="#4ED4E1"/>
<path d="M323.324 126.618C323.324 141.383 323.331 155.572 323.322 169.762C323.306 194.899 304.318 211.75 278.403 209.021C278.403 207.053 278.403 205.009 278.403 202.966C278.403 200.903 278.403 198.841 278.403 196.558C282.112 196.262 285.341 196.107 288.544 195.731C299.138 194.487 308.059 185.778 309.554 175.156C309.926 172.512 310.004 169.81 310.006 167.134C310.033 125.525 310.029 83.9148 310.022 42.3051C310.019 23.0285 300.328 13.3109 281.059 13.3085C201.483 13.2985 121.907 13.2971 42.3305 13.3108C27.283 13.3134 17.7136 19.7922 14.4939 32.2991C13.8378 34.8477 13.7758 37.5999 13.7731 40.2586C13.7313 82.827 13.7431 125.396 13.7439 167.964C13.7442 185.978 22.9248 195.455 41.0847 196.204C42.2013 196.25 43.3151 196.363 44.7131 196.465C44.7131 200.829 44.7131 204.977 44.7131 209.11C19.3711 211.711 0.22171 194.893 0.126022 169.643C-0.0382051 126.308 -0.0480475 82.9716 0.132757 39.6369C0.230403 16.2317 16.8665 0.0131955 40.215 0.00952546C121.325 -0.00322374 202.435 -0.00310021 283.545 0.00944644C307.04 0.013082 323.314 16.2924 323.322 39.7555C323.332 68.5178 323.324 97.28 323.324 126.618Z" fill="#4ED4E1"/>
</svg>
