<svg width="280" height="206" viewBox="0 0 280 206" fill="none" xmlns="http://www.w3.org/2000/svg">
<path d="M223.29 104.935C223.289 133.628 223.355 161.844 223.257 190.061C223.216 202.044 212.224 209.061 201.915 203.881C197.505 201.666 194.858 198.097 194.146 193.204C193.873 191.331 193.754 189.42 193.753 187.527C193.731 148.848 193.724 110.169 193.745 71.4901C193.75 62.4022 196.872 56.988 203.317 54.6052C213.115 50.9826 223.067 57.6965 223.241 68.3181C223.438 80.3624 223.289 92.4123 223.29 104.935Z" fill="#4ED4E1"/>
<path d="M149.238 121.058C153.456 113.845 159.576 110.956 166.443 112.696C173.191 114.406 177.283 120.13 177.291 128.019C177.312 148.761 177.315 169.502 177.29 190.244C177.28 199.181 171.711 205.471 163.558 205.87C155.07 206.286 148.121 200.5 147.97 191.517C147.603 169.833 147.831 148.138 147.913 126.448C147.919 124.758 148.658 123.071 149.238 121.058Z" fill="#4ED4E1"/>
<path d="M103.073 196.689C102.634 194.147 102.042 191.968 102.037 189.787C101.974 161.895 101.962 134.004 102.014 106.112C102.033 95.8483 108.86 89.3401 118.434 90.2275C125.645 90.8958 131.408 96.7934 131.436 104.191C131.545 133.35 131.531 162.51 131.445 191.669C131.425 198.356 126.787 203.916 120.471 205.513C113.5 207.275 107.311 204.243 103.073 196.689Z" fill="#4ED4E1"/>
<path d="M85.6681 165.835C85.668 174.223 85.7167 182.141 85.655 190.058C85.5826 199.337 79.494 205.863 70.983 205.908C62.304 205.953 56.2565 199.642 56.189 190.277C56.1124 179.668 56.1119 169.058 56.1892 158.449C56.2573 149.096 62.3332 142.768 70.9966 142.833C79.4969 142.898 85.5523 149.447 85.6638 158.714C85.6905 160.931 85.668 163.148 85.6681 165.835Z" fill="#4ED4E1"/>
<path d="M233.085 178.744V181.445L235.771 181.728C247.211 182.933 257.349 179.826 264.653 173.413C271.962 166.995 276.202 157.469 276.209 146.301C276.214 138.244 276.213 130.187 276.211 121.977C276.211 118.236 276.21 114.462 276.21 110.643C276.21 103.307 276.211 96.0141 276.211 88.7516C276.213 72.0122 276.214 55.4333 276.208 38.8548C276.205 28.4479 272.581 19.4465 266.171 13.0395C259.762 6.63256 250.755 3.00942 240.336 3.00781C173.302 2.99744 106.269 2.99734 39.2351 3.00787C28.8769 3.0095 19.8352 6.61892 13.362 12.9926C6.88534 19.3696 3.15314 28.3439 3.10974 38.7453C2.96028 74.5679 2.96842 110.391 3.10417 146.212C3.14668 157.428 7.43865 166.961 14.7185 173.39C21.9933 179.814 32.041 182.954 43.2593 181.803L45.953 181.526V178.819V178.799V178.779V178.759V178.738V178.718V178.698V178.678V178.658V178.638V178.618V178.598V178.578V178.558V178.538V178.518V178.498V178.478V178.458V178.438V178.418V178.398V178.378V178.358V178.338V178.318V178.298V178.278V178.258V178.238V178.218V178.198V178.178V178.158V178.138V178.118V178.098V178.078V178.058V178.038V178.018V177.998V177.978V177.957V177.937V177.917V177.897V177.877V177.857V177.837V177.817V177.797V177.777V177.757V177.737V177.717V177.697V177.677V177.657V177.637V177.617V177.597V177.577V177.557V177.537V177.517V177.496V177.476V177.456V177.436V177.416V177.396V177.376V177.356V177.336V177.316V177.296V177.276V177.256V177.236V177.216V177.196V177.176V177.156V177.135V177.115V177.095V177.075V177.055V177.035V177.015V176.995V176.975V176.955V176.935V176.915V176.895V176.874V176.854V176.834V176.814V176.794V176.774V176.754V176.734V176.714V176.694V176.674V176.654V176.633V176.613V176.593V176.573V176.553V176.533V176.513V176.493V176.473V176.453V176.433V176.412V176.392V176.372V176.352V176.332V176.312V176.292V176.272V176.252V176.231V176.211V176.191V176.171V176.151V176.131V176.111V176.091V176.07V176.05V176.03V176.01V175.99V175.97V175.95V175.93V175.909V175.889V175.869V175.849V175.829V175.809V175.789V175.768V175.748V175.728V175.708V175.688V175.668V175.648V175.627V175.607V175.587V175.567V175.547V175.527V175.506V175.486V175.466V175.446V175.426V175.406V175.385V175.365V175.345V175.325V175.305V175.285V175.264V175.244V175.224V175.204V175.184V175.163V175.143V175.123V175.103V175.083V175.062V175.042V175.022V175.002V174.982V174.961V174.941V174.921V174.901V174.881V174.86V174.84V174.82V174.8V174.78V174.759V174.739V174.719V174.699V174.678V174.658V174.638V174.618V174.597V174.577V174.557V174.537V174.517V174.496V174.476V174.456V174.436V174.415V174.395V174.375V174.355V174.334V174.314V174.294V174.273V174.253V174.233V174.213V174.192V174.172V174.152V174.132V174.111V174.091V174.071V174.05V174.03V174.01V173.99V173.969V173.949V173.929V173.908V173.888V173.868V173.847V173.827V173.807V173.786V173.766V173.746V173.725V173.705V173.685V173.664V173.644V173.624V173.603V173.583V173.563V173.542V173.522V173.502V173.481V173.461V173.441V173.42V173.4V173.38V173.359V173.339V173.319V173.298V173.278V173.257V173.237V173.217V173.196V173.176V173.156V173.135V173.115V173.094V173.074V173.054V173.033V173.013V172.992V172.972V172.952V172.931V172.911V172.89V172.87V172.849V172.829V172.809V172.788V172.768V172.747V172.727V172.706V172.686V172.666V172.645V172.625V172.604V172.584V172.563V172.543V172.522V172.502V172.481V172.461V172.441V172.42V172.4V172.379V172.359V172.338V172.318V172.297V172.277V172.256V172.236V172.215V172.195V172.174V172.154V172.133V172.113V172.092V172.072V172.051V172.03V172.01V171.989V171.969V171.948V171.928V171.907V171.887V171.866V171.846V171.825V171.805V171.784V171.763V171.743V171.722V171.702V171.681V171.661V171.64V171.619V171.599V171.578V171.558V171.537V171.516V171.496V171.475V171.455V171.434V171.413V171.393V171.372V171.352V171.331V171.31V171.29V171.269V171.248V171.228V171.207V171.186V171.166V171.145V171.124V171.104V171.083V171.063V171.042V171.021V171.001V170.98V170.959V170.938V170.918V170.897V170.876V170.856V170.835V170.814V170.794V170.773V170.752V170.731V170.711V170.69V170.669V170.649V170.628V170.607V170.586V170.566V170.545V170.524V170.503V170.483V170.462V170.441V170.42V170.4V170.379V170.358V170.337V170.316V170.296V170.275V170.254V170.233V170.213V170.192V170.171V170.15V170.129V170.108V170.088V170.067V170.046V170.025V170.004V169.984V169.963V169.942V169.921V169.9V169.879V169.858V169.838V169.817V169.796V169.775V169.754V169.733V169.712V169.691V169.671V169.65V169.629V169.608V169.587V169.566V169.545V169.524V169.503V169.482V169.461V169.441V169.42V169.399V169.378V169.357V169.336V169.315V169.294V169.273V169.252V169.231V169.21V169.189V169.168V169.147V169.126V169.105V169.084V169.063V169.042V169.021V169V168.979V168.958V168.937V168.916V168.895V168.874V168.853V168.832V168.811V168.79V168.769V168.748V168.727V168.706V168.685V168.663V168.642V168.621V168.6V168.579V168.558V168.537V168.516V168.495V168.474V168.453V168.431V168.41V168.389V168.368V165.58L43.1722 165.376C42.8458 165.352 42.517 165.326 42.1891 165.299C41.4688 165.241 40.7532 165.183 40.0779 165.155C33.0459 164.865 28.2452 162.908 25.1837 159.747C22.1267 156.59 20.3587 151.77 20.3586 144.813C20.3585 138.788 20.3581 132.762 20.3577 126.737C20.3559 97.5816 20.3541 68.4281 20.3828 39.2745C20.3849 37.0671 20.4465 35.1397 20.8837 33.4414C22.0569 28.8842 24.3187 25.6202 27.5038 23.4516C30.7334 21.2528 35.1781 20.0017 40.9844 20.0007C106.749 19.9893 172.515 19.9905 238.28 19.9988C245.773 19.9997 250.861 21.8869 254.096 25.1271C257.333 28.3682 259.216 33.4644 259.217 40.9634C259.223 75.3516 259.225 109.739 259.203 144.126C259.202 146.294 259.137 148.362 258.859 150.339C257.813 157.77 251.515 163.913 244.117 164.782C242.395 164.984 240.708 165.102 238.826 165.234C237.891 165.3 236.907 165.369 235.847 165.454L233.085 165.674V168.444V168.455V168.466V168.477V168.489V168.5V168.511V168.522V168.533V168.544V168.555V168.566V168.577V168.588V168.599V168.61V168.621V168.632V168.643V168.654V168.665V168.676V168.687V168.698V168.709V168.719V168.73V168.741V168.752V168.763V168.774V168.785V168.796V168.807V168.818V168.829V168.84V168.851V168.862V168.872V168.883V168.894V168.905V168.916V168.927V168.938V168.949V168.96V168.97V168.981V168.992V169.003V169.014V169.025V169.036V169.046V169.057V169.068V169.079V169.09V169.101V169.111V169.122V169.133V169.144V169.155V169.165V169.176V169.187V169.198V169.209V169.219V169.23V169.241V169.252V169.262V169.273V169.284V169.295V169.305V169.316V169.327V169.338V169.348V169.359V169.37V169.381V169.391V169.402V169.413V169.423V169.434V169.445V169.456V169.466V169.477V169.488V169.498V169.509V169.52V169.53V169.541V169.552V169.562V169.573V169.584V169.594V169.605V169.616V169.626V169.637V169.648V169.658V169.669V169.68V169.69V169.701V169.712V169.722V169.733V169.743V169.754V169.765V169.775V169.786V169.796V169.807V169.818V169.828V169.839V169.849V169.86V169.871V169.881V169.892V169.902V169.913V169.923V169.934V169.944V169.955V169.966V169.976V169.987V169.997V170.008V170.018V170.029V170.039V170.05V170.06V170.071V170.081V170.092V170.102V170.113V170.123V170.134V170.145V170.155V170.165V170.176V170.186V170.197V170.207V170.218V170.228V170.239V170.249V170.26V170.27V170.281V170.291V170.302V170.312V170.323V170.333V170.343V170.354V170.364V170.375V170.385V170.396V170.406V170.417V170.427V170.437V170.448V170.458V170.469V170.479V170.489V170.5V170.51V170.521V170.531V170.541V170.552V170.562V170.573V170.583V170.593V170.604V170.614V170.625V170.635V170.645V170.656V170.666V170.676V170.687V170.697V170.707V170.718V170.728V170.738V170.749V170.759V170.77V170.78V170.79V170.801V170.811V170.821V170.831V170.842V170.852V170.862V170.873V170.883V170.893V170.904V170.914V170.924V170.935V170.945V170.955V170.966V170.976V170.986V170.996V171.007V171.017V171.027V171.038V171.048V171.058V171.068V171.079V171.089V171.099V171.109V171.12V171.13V171.14V171.151V171.161V171.171V171.181V171.192V171.202V171.212V171.222V171.232V171.243V171.253V171.263V171.273V171.284V171.294V171.304V171.314V171.325V171.335V171.345V171.355V171.365V171.376V171.386V171.396V171.406V171.417V171.427V171.437V171.447V171.457V171.468V171.478V171.488V171.498V171.508V171.518V171.529V171.539V171.549V171.559V171.569V171.58V171.59V171.6V171.61V171.62V171.63V171.641V171.651V171.661V171.671V171.681V171.691V171.702V171.712V171.722V171.732V171.742V171.752V171.762V171.773V171.783V171.793V171.803V171.813V171.823V171.833V171.844V171.854V171.864V171.874V171.884V171.894V171.904V171.914V171.925V171.935V171.945V171.955V171.965V171.975V171.985V171.995V172.006V172.016V172.026V172.036V172.046V172.056V172.066V172.076V172.086V172.096V172.107V172.117V172.127V172.137V172.147V172.157V172.167V172.177V172.187V172.197V172.207V172.217V172.228V172.238V172.248V172.258V172.268V172.278V172.288V172.298V172.308V172.318V172.328V172.338V172.348V172.359V172.369V172.379V172.389V172.399V172.409V172.419V172.429V172.439V172.449V172.459V172.469V172.479V172.489V172.499V172.509V172.519V172.529V172.54V172.55V172.56V172.57V172.58V172.59V172.6V172.61V172.62V172.63V172.64V172.65V172.66V172.67V172.68V172.69V172.7V172.71V172.72V172.73V172.74V172.75V172.76V172.77V172.78V172.79V172.8V172.81V172.82V172.83V172.841V172.851V172.861V172.871V172.881V172.891V172.901V172.911V172.921V172.931V172.941V172.951V172.961V172.971V172.981V172.991V173.001V173.011V173.021V173.031V173.041V173.051V173.061V173.071V173.081V173.091V173.101V173.111V173.121V173.131V173.141V173.151V173.161V173.171V173.181V173.191V173.201V173.211V173.221V173.231V173.241V173.251V173.261V173.271V173.281V173.291V173.301V173.311V173.321V173.331V173.341V173.351V173.361V173.371V173.381V173.391V173.401V173.411V173.421V173.431V173.441V173.451V173.461V173.471V173.481V173.491V173.501V173.511V173.521V173.531V173.541V173.551V173.561V173.571V173.581V173.591V173.601V173.611V173.621V173.631V173.641V173.65V173.66V173.67V173.68V173.69V173.7V173.71V173.72V173.73V173.74V173.75V173.76V173.77V173.78V173.79V173.8V173.81V173.82V173.829V173.839V173.849V173.859V173.869V173.879V173.889V173.899V173.909V173.919V173.928V173.938V173.948V173.958V173.968V173.978V173.988V173.998V174.008V174.017V174.027V174.037V174.047V174.057V174.067V174.077V174.087V174.097V174.107V174.116V174.126V174.136V174.146V174.156V174.166V174.176V174.186V174.196V174.205V174.215V174.225V174.235V174.245V174.255V174.265V174.275V174.285V174.294V174.304V174.314V174.324V174.334V174.344V174.354V174.364V174.374V174.383V174.393V174.403V174.413V174.423V174.433V174.443V174.453V174.463V174.472V174.482V174.492V174.502V174.512V174.522V174.532V174.542V174.552V174.561V174.571V174.581V174.591V174.601V174.611V174.621V174.631V174.641V174.65V174.66V174.67V174.68V174.69V174.7V174.71V174.72V174.729V174.739V174.749V174.759V174.769V174.779V174.789V174.799V174.809V174.818V174.828V174.838V174.848V174.858V174.868V174.878V174.888V174.897V174.907V174.917V174.927V174.937V174.947V174.957V174.967V174.976V174.986V174.996V175.006V175.016V175.026V175.036V175.046V175.055V175.065V175.075V175.085V175.095V175.105V175.115V175.124V175.134V175.144V175.154V175.164V175.174V175.184V175.194V175.203V175.213V175.223V175.233V175.243V175.253V175.263V175.272V175.282V175.292V175.302V175.312V175.322V175.332V175.342V175.351V175.361V175.371V175.381V175.391V175.401V175.411V175.42V175.43V175.44V175.45V175.46V175.47V175.479V175.489V175.499V175.509V175.519V175.529V175.539V175.548V175.558V175.568V175.578V175.588V175.598V175.608V175.617V175.627V175.637V175.647V175.657V175.667V175.676V175.686V175.696V175.706V175.716V175.726V175.735V175.745V175.755V175.765V175.775V175.785V175.794V175.804V175.814V175.824V175.834V175.844V175.853V175.863V175.873V175.883V175.893V175.903V175.912V175.922V175.932V175.942V175.952V175.962V175.971V175.981V175.991V176.001V176.011V176.021V176.03V176.04V176.05V176.06V176.07V176.079V176.089V176.099V176.109V176.119V176.129V176.138V176.148V176.158V176.168V176.178V176.187V176.197V176.207V176.217V176.227V176.236V176.246V176.256V176.266V176.276V176.285V176.295V176.305V176.315V176.325V176.334V176.344V176.354V176.364V176.374V176.383V176.393V176.403V176.413V176.423V176.432V176.442V176.452V176.462V176.472V176.481V176.491V176.501V176.511V176.521V176.53V176.54V176.55V176.56V176.569V176.579V176.589V176.599V176.609V176.618V176.628V176.638V176.648V176.657V176.667V176.677V176.687V176.696V176.706V176.716V176.726V176.736V176.745V176.755V176.765V176.775V176.784V176.794V176.804V176.814V176.823V176.833V176.843V176.853V176.862V176.872V176.882V176.892V176.901V176.911V176.921V176.931V176.94V176.95V176.96V176.97V176.979V176.989V176.999V177.009V177.018V177.028V177.038V177.048V177.057V177.067V177.077V177.087V177.096V177.106V177.116V177.126V177.135V177.145V177.155V177.164V177.174V177.184V177.194V177.203V177.213V177.223V177.232V177.242V177.252V177.262V177.271V177.281V177.291V177.3V177.31V177.32V177.33V177.339V177.349V177.359V177.368V177.378V177.388V177.398V177.407V177.417V177.427V177.436V177.446V177.456V177.465V177.475V177.485V177.495V177.504V177.514V177.524V177.533V177.543V177.553V177.562V177.572V177.582V177.591V177.601V177.611V177.62V177.63V177.64V177.649V177.659V177.669V177.678V177.688V177.698V177.707V177.717V177.727V177.736V177.746V177.756V177.765V177.775V177.785V177.794V177.804V177.814V177.823V177.833V177.843V177.852V177.862V177.872V177.881V177.891V177.901V177.91V177.92V177.93V177.939V177.949V177.958V177.968V177.978V177.987V177.997V178.007V178.016V178.026V178.036V178.045V178.055V178.064V178.074V178.084V178.093V178.103V178.112V178.122V178.132V178.141V178.151V178.161V178.17V178.18V178.189V178.199V178.209V178.218V178.228V178.237V178.247V178.257V178.266V178.276V178.285V178.295V178.305V178.314V178.324V178.333V178.343V178.353V178.362V178.372V178.381V178.391V178.4V178.41V178.42V178.429V178.439V178.448V178.458V178.467V178.477V178.487V178.496V178.506V178.515V178.525V178.534V178.544V178.554V178.563V178.573V178.582V178.592V178.601V178.611V178.62V178.63V178.639V178.649V178.659V178.668V178.678V178.687V178.697V178.706V178.716V178.725V178.735V178.744Z" fill="#4ED4E1" stroke="#4ED4E1" stroke-width="6"/>
</svg>
