<svg width="403" height="302" viewBox="0 0 403 302" fill="none" xmlns="http://www.w3.org/2000/svg">
<path d="M327.708 149.578C327.707 192.85 327.806 235.406 327.659 277.961C327.597 296.033 311.019 306.616 295.472 298.805C288.821 295.463 284.829 290.081 283.755 282.701C283.343 279.877 283.163 276.995 283.161 274.139C283.128 215.805 283.119 157.471 283.15 99.137C283.157 85.4309 287.866 77.2654 297.586 73.6717C312.363 68.2083 327.373 78.3339 327.635 94.3531C327.932 112.518 327.706 130.691 327.708 149.578Z" fill="#4ED4E1"/>
<path d="M216.026 173.893C222.388 163.015 231.618 158.658 241.975 161.282C252.152 163.861 258.323 172.494 258.335 184.392C258.367 215.674 258.37 246.956 258.334 278.237C258.318 291.716 249.92 301.202 237.623 301.804C224.821 302.431 214.342 293.705 214.113 280.158C213.561 247.454 213.904 214.735 214.028 182.023C214.037 179.474 215.151 176.929 216.026 173.893Z" fill="#4ED4E1"/>
<path d="M146.402 287.957C145.74 284.124 144.847 280.837 144.84 277.548C144.745 235.483 144.727 193.418 144.804 151.353C144.833 135.873 155.129 126.058 169.569 127.396C180.444 128.404 189.136 137.299 189.178 148.456C189.342 192.432 189.321 236.41 189.191 280.387C189.161 290.472 182.167 298.857 172.64 301.265C162.128 303.922 152.793 299.35 146.402 287.957Z" fill="#4ED4E1"/>
<path d="M120.153 241.425C120.153 254.075 120.226 266.016 120.133 277.956C120.024 291.951 110.841 301.794 98.0051 301.861C84.9158 301.929 75.7953 292.411 75.6933 278.287C75.5778 262.287 75.577 246.286 75.6936 230.286C75.7964 216.179 84.9599 206.635 98.0257 206.734C110.846 206.832 119.978 216.708 120.146 230.685C120.186 234.028 120.153 237.372 120.153 241.425Z" fill="#4ED4E1"/>
<path d="M402.996 158.186C402.996 176.589 403.006 194.275 402.994 211.961C402.975 243.293 379.307 264.296 347.006 260.894C347.006 258.441 347.006 255.894 347.006 253.347C347.006 250.776 347.006 248.206 347.006 245.36C351.629 244.992 355.654 244.798 359.646 244.329C372.851 242.779 383.97 231.924 385.833 218.684C386.297 215.389 386.394 212.021 386.396 208.686C386.43 156.823 386.425 104.96 386.417 53.0969C386.413 29.0703 374.333 16.9582 350.317 16.9551C251.131 16.9426 151.946 16.9409 52.7614 16.958C34.006 16.9613 22.0785 25.0365 18.0654 40.6253C17.2476 43.802 17.1703 47.2323 17.1671 50.5462C17.1149 103.604 17.1297 156.662 17.1306 209.72C17.131 232.173 28.5739 243.986 51.2086 244.919C52.6004 244.977 53.9887 245.117 55.7312 245.245C55.7312 250.683 55.7312 255.854 55.7312 261.006C24.1445 264.248 0.276343 243.285 0.157076 211.813C-0.0476195 157.8 -0.0598872 103.784 0.16547 49.7713C0.287179 20.5987 21.0227 0.383635 50.1246 0.37906C151.222 0.363169 252.319 0.363323 353.416 0.378962C382.7 0.383493 402.983 20.6743 402.993 49.9191C403.006 85.7689 402.996 121.619 402.996 158.186Z" fill="#4ED4E1"/>
</svg>
