<svg width="208" height="214" viewBox="0 0 208 214" fill="none" xmlns="http://www.w3.org/2000/svg">
<path d="M17.82 174.555C20.8633 174.555 23.265 174.903 25.025 175.6C26.8217 176.297 28.105 177.507 28.875 179.23C29.645 180.917 30.03 183.318 30.03 186.435C30.03 189.552 29.645 191.972 28.875 193.695C28.1417 195.418 26.9133 196.628 25.19 197.325C23.5033 197.985 21.23 198.315 18.37 198.315C16.83 198.315 15.345 198.278 13.915 198.205C12.5217 198.132 11.2383 198.04 10.065 197.93C8.89167 197.783 7.88333 197.637 7.04 197.49C6.23333 197.343 5.665 197.215 5.335 197.105L5.5 194.135C7.44333 194.135 9.46 194.135 11.55 194.135C13.64 194.135 15.7117 194.135 17.765 194.135C19.5983 194.098 21.0467 193.878 22.11 193.475C23.21 193.035 23.98 192.265 24.42 191.165C24.8967 190.028 25.135 188.452 25.135 186.435C25.135 184.382 24.8967 182.805 24.42 181.705C23.98 180.605 23.21 179.835 22.11 179.395C21.0467 178.955 19.5983 178.735 17.765 178.735C14.7583 178.735 12.155 178.753 9.955 178.79C7.79167 178.827 6.325 178.882 5.555 178.955L4.785 175.05C6.17833 174.903 7.48 174.793 8.69 174.72C9.9 174.647 11.22 174.61 12.65 174.61C14.08 174.573 15.8033 174.555 17.82 174.555ZM9.625 175.05V213H4.785V175.05H9.625ZM63.0764 175.05L50.2614 200.13H45.9164L33.0464 175.05H38.2164L46.1914 191.055C46.5214 191.752 46.8147 192.467 47.0714 193.2C47.3647 193.933 47.6397 194.648 47.8964 195.345H48.2814C48.5381 194.648 48.8131 193.933 49.1064 193.2C49.3997 192.467 49.6931 191.77 49.9864 191.11L57.9614 175.05H63.0764ZM50.4814 196.72V213H45.6414V196.72H50.4814ZM82.1249 175.05V213H77.2849V175.05H82.1249ZM94.3899 175.05V179.34H65.0749V175.05H94.3899ZM105.338 175.05V213H100.498V175.05H105.338ZM123.433 190.615V194.795H104.898V190.615H123.433ZM127.668 175.05V213H122.828V175.05H127.668ZM150.821 174.335C153.571 174.335 155.9 174.665 157.806 175.325C159.75 175.985 161.29 177.085 162.426 178.625C163.6 180.128 164.443 182.145 164.956 184.675C165.506 187.205 165.781 190.322 165.781 194.025C165.781 197.728 165.506 200.845 164.956 203.375C164.443 205.905 163.6 207.94 162.426 209.48C161.29 210.983 159.75 212.065 157.806 212.725C155.9 213.385 153.571 213.715 150.821 213.715C148.071 213.715 145.725 213.385 143.781 212.725C141.875 212.065 140.335 210.983 139.161 209.48C137.988 207.94 137.126 205.905 136.576 203.375C136.063 200.845 135.806 197.728 135.806 194.025C135.806 190.322 136.063 187.205 136.576 184.675C137.126 182.145 137.988 180.128 139.161 178.625C140.335 177.085 141.875 175.985 143.781 175.325C145.725 174.665 148.071 174.335 150.821 174.335ZM150.821 178.68C148.328 178.68 146.348 179.157 144.881 180.11C143.451 181.063 142.425 182.658 141.801 184.895C141.215 187.095 140.921 190.138 140.921 194.025C140.921 197.875 141.215 200.918 141.801 203.155C142.425 205.392 143.451 206.987 144.881 207.94C146.348 208.893 148.328 209.37 150.821 209.37C153.315 209.37 155.276 208.893 156.706 207.94C158.173 206.987 159.2 205.392 159.786 203.155C160.41 200.918 160.721 197.875 160.721 194.025C160.721 190.138 160.41 187.095 159.786 184.895C159.2 182.658 158.173 181.063 156.706 180.11C155.276 179.157 153.315 178.68 150.821 178.68ZM203.179 175.05V211.075C203.179 212.358 202.556 213 201.309 213H196.579C196.029 213 195.589 212.872 195.259 212.615C194.929 212.358 194.654 211.973 194.434 211.46L181.619 184.565C181.289 183.832 180.904 183.007 180.464 182.09C180.024 181.173 179.694 180.33 179.474 179.56H178.594C178.668 180.367 178.723 181.192 178.759 182.035C178.796 182.878 178.814 183.722 178.814 184.565V213H173.974V176.975C173.974 175.692 174.616 175.05 175.899 175.05H180.464C181.014 175.05 181.454 175.178 181.784 175.435C182.114 175.692 182.389 176.077 182.609 176.59L195.039 202.825C195.443 203.595 195.864 204.475 196.304 205.465C196.781 206.418 197.221 207.372 197.624 208.325H198.559C198.523 207.335 198.486 206.363 198.449 205.41C198.413 204.457 198.394 203.503 198.394 202.55V175.05H203.179Z" fill="#4ED4E1"/>
<path d="M102.61 0.0137489C95.9619 0.0206233 89.4519 0.60495 83.1274 1.71861L83.8011 1.62236C67.1444 4.56462 64.1265 10.7241 64.1265 22.0807V37.0807H103.489V42.0784H49.3602C49.2227 42.0784 49.0646 42.0715 48.9065 42.0715C36.9656 42.0715 27.0183 50.5889 24.7979 61.8767L24.7704 62.0348C23.0105 68.0293 22 74.9175 22 82.0394C22 89.1613 23.0105 96.0495 24.901 102.56L24.7704 102.037C27.5683 113.689 34.2502 121.987 45.6686 121.987H59.2044V104.003C59.5137 90.5774 70.3547 79.7846 83.7736 79.5509H83.7942H123.109C133.998 79.4615 142.791 70.621 142.791 59.7181C142.791 59.6563 142.791 59.6013 142.791 59.5394V22.0669C142.076 11.3359 133.758 2.74977 123.212 1.61549L123.116 1.60862C117.163 0.584326 110.309 0 103.324 0C103.077 0 102.836 0 102.589 0H102.623L102.61 0.0137489ZM81.3263 12.0784H81.4432C85.5884 12.0784 88.9432 15.44 88.9432 19.5784C88.9432 23.7168 85.5816 27.0784 81.4432 27.0784C77.3116 27.0784 73.9569 23.7305 73.9432 19.599C73.9432 19.5852 73.9432 19.5646 73.9432 19.544C73.9432 15.4468 77.2429 12.1196 81.3263 12.0784Z" fill="#4ED4E1"/>
<path d="M147.706 42.0784V59.5532C147.555 73.1439 136.679 84.1499 123.15 84.5073H123.116H83.8011C72.912 84.7342 64.1677 93.5953 64.1265 104.505V141.991C64.1265 152.654 73.4001 158.93 83.8011 161.996C89.6787 163.9 96.4431 165 103.462 165C110.481 165 117.245 163.9 123.583 161.865L123.116 161.996C133.015 159.129 142.791 153.348 142.791 141.991V126.978H103.476V121.98H162.472C173.911 121.98 178.173 113.999 182.153 102.03C184.078 96.0495 185.185 89.1682 185.185 82.0257C185.185 74.8831 184.078 68.0018 182.023 61.5467L182.153 62.028C179.328 50.6439 173.904 42.0784 162.472 42.0784H147.706ZM125.598 136.994H125.714C129.86 136.994 133.214 140.355 133.214 144.494C133.214 148.632 129.853 151.994 125.714 151.994C121.569 151.994 118.214 148.632 118.214 144.494C118.214 144.487 118.214 144.473 118.214 144.466C118.214 144.452 118.214 144.432 118.214 144.418C118.214 140.328 121.514 137.014 125.598 136.994Z" fill="#4ED4E1"/>
</svg>
