<svg width="192" height="192" viewBox="0 0 192 192" fill="none" xmlns="http://www.w3.org/2000/svg">
<path d="M93.913 0C57.6033 0 50.087 18.75 50.087 29.6087V50.087H91.8261V54.2609H29.6087C15.8315 54.2609 0 65.1196 0 96C0 126.88 15.8315 137.739 29.6087 137.739H54.2609V112.696C54.2609 103.516 61.7772 96 70.9565 96H121.043C128.136 96 133.565 90.5707 133.565 83.4783V29.6087C133.565 15 119.788 0 93.913 0ZM75.1304 20.8696C79.7283 20.8696 83.4783 24.6196 83.4783 29.2174C83.4783 33.8152 79.7283 37.5652 75.1304 37.5652C70.5326 37.5652 66.7826 33.8152 66.7826 29.2174C66.7826 24.6196 70.5326 20.8696 75.1304 20.8696ZM137.739 54.2609V83.4783C137.739 92.6576 130.223 100.174 121.043 100.174H70.9565C63.8641 100.174 58.4348 105.603 58.4348 112.696V162.391C58.4348 177 72.212 192 98.087 192C134.397 192 141.913 173.25 141.913 162.391V141.913H100.174V137.739H162.391C176.168 137.739 192 126.88 192 96C192 65.1196 176.168 54.2609 162.391 54.2609H137.739ZM116.87 154.435C121.467 154.435 125.217 158.185 125.217 162.783C125.217 167.38 121.467 171.13 116.87 171.13C112.272 171.13 108.522 167.38 108.522 162.783C108.522 158.185 112.272 154.435 116.87 154.435Z" fill="#4ED4E1"/>
</svg>
