<svg width="212" height="220" viewBox="0 0 212 220" fill="none" xmlns="http://www.w3.org/2000/svg">
<path d="M103.304 0C63.3636 0 55.0957 21.4844 55.0957 33.9266V57.3913H101.009V62.1739H32.5696C17.4147 62.1739 0 74.6162 0 110C0 145.384 17.4147 157.826 32.5696 157.826H59.687V129.13C59.687 118.612 67.9549 110 78.0522 110H133.148C140.95 110 146.922 103.779 146.922 95.6522V33.9266C146.922 17.1875 131.767 0 103.304 0ZM82.6435 23.913C87.7011 23.913 91.8261 28.2099 91.8261 33.4783C91.8261 38.7466 87.7011 43.0435 82.6435 43.0435C77.5859 43.0435 73.4609 38.7466 73.4609 33.4783C73.4609 28.2099 77.5859 23.913 82.6435 23.913ZM151.513 62.1739V95.6522C151.513 106.17 143.245 114.783 133.148 114.783H78.0522C70.2506 114.783 64.2783 121.004 64.2783 129.13V186.073C64.2783 202.812 79.4332 220 107.896 220C147.836 220 156.104 198.516 156.104 186.073V162.609H110.191V157.826H178.631C193.785 157.826 211.2 145.384 211.2 110C211.2 74.6162 193.785 62.1739 178.631 62.1739H151.513ZM128.557 176.957C133.614 176.957 137.739 181.253 137.739 186.522C137.739 191.79 133.614 196.087 128.557 196.087C123.499 196.087 119.374 191.79 119.374 186.522C119.374 181.253 123.499 176.957 128.557 176.957Z" fill="#4ED4E1"/>
</svg>
