<svg width="165" height="165" viewBox="0 0 165 165" fill="none" xmlns="http://www.w3.org/2000/svg">
<path d="M165 75.4102C165 80.036 165 84.6619 164.87 89.4903C164.164 93.6815 163.861 97.7334 162.954 101.645C161.326 108.661 158.744 115.354 155.285 121.709C152.1 127.561 148.375 133.038 143.846 137.896C140.767 141.198 137.417 144.285 133.937 147.165C128.843 151.381 123.212 154.805 117.173 157.552C109.566 161.011 101.688 163.463 93.3541 164.367C92.0914 164.504 90.8442 164.785 89.5898 165C84.964 165 80.3381 165 75.5105 164.871C73.6738 164.611 71.9895 164.689 70.4127 164.314C65.1804 163.07 59.9425 161.812 54.7906 160.278C49.4663 158.693 44.5599 156.127 39.8329 153.2C38.6649 152.476 37.5368 151.32 35.8257 151.885C29.7952 153.877 23.7459 155.811 17.7023 157.763C13.5571 159.101 9.4093 160.432 5.1408 161.805C8.51921 151.689 11.8449 141.761 15.1243 131.818C15.2826 131.338 15.219 130.601 14.9463 130.191C11.1786 124.535 7.8192 118.678 5.40408 112.293C3.3613 106.892 1.78615 101.387 0.948614 95.6679C0.743906 94.2701 0.32203 92.9041 2.92148e-09 91.5234C-6.4161e-07 85.6085 -6.5309e-07 79.6936 0.124642 73.5832C0.598265 71.0655 0.819202 68.7153 1.31934 66.4261C3.07972 58.3686 5.71041 50.623 9.67448 43.3468C12.7795 37.6474 16.3896 32.2898 20.7444 27.5075C25.1969 22.6179 30.0583 18.1448 35.5992 14.4352C40.8676 10.9081 46.3627 7.88273 52.2724 5.56191C58.4854 3.12198 64.862 1.41994 71.4894 0.635538C72.803 0.480066 74.1036 0.214692 75.4102 0C80.036 0 84.6619 9.60426e-09 89.4903 0.130008C92.669 0.605887 95.6856 0.750423 98.6133 1.33784C105.582 2.73597 112.309 4.98624 118.692 8.10461C125.7 11.5286 132.197 15.8149 137.898 21.1502C141.195 24.2354 144.281 27.5856 147.166 31.0622C151.389 36.1515 154.777 41.8054 157.549 47.8269C161.047 55.4219 163.443 63.3177 164.367 71.6459C164.507 72.9085 164.785 74.1558 165 75.4102ZM37.0694 49.2156C35.1193 54.1758 34.2368 59.2468 35.1021 64.594C36.1225 70.9005 38.5661 76.6201 42.1036 81.8594C44.8432 85.917 47.7376 89.8823 50.7665 93.7286C53.4092 97.0843 56.2052 100.343 59.1781 103.408C61.5991 105.903 64.3677 108.064 67.0078 110.344C70.8847 113.692 75.114 116.547 79.6511 118.901C87.2493 122.844 95.2204 125.858 103.558 127.813C107.04 128.63 110.56 128.885 114.153 127.992C117.623 127.13 120.807 125.729 123.795 123.846C126.594 122.081 128.949 119.828 130.168 116.684C131.378 113.563 132.173 110.32 132.121 106.933C132.101 105.652 131.607 104.652 130.358 104.051C123.87 100.932 117.399 97.7774 110.921 94.6391C109.513 93.957 108.052 93.9468 106.807 94.8559C105.884 95.5302 105.134 96.4798 104.421 97.3954C102.657 99.6607 100.989 102.001 99.2244 104.265C97.7691 106.132 95.6584 106.956 92.886 105.918C85.1786 103.032 78.3793 98.6636 72.3535 93.1073C67.6478 88.7682 63.865 83.6495 60.4049 78.2898C58.6667 75.5974 58.9295 73.7723 61.1572 71.4293C62.7581 69.7454 64.3079 68.001 65.7462 66.1777C67.2741 64.2408 67.9537 62.1402 66.6451 59.7011C65.8692 58.255 65.4155 56.6393 64.7635 55.1229C62.6009 50.0934 60.4596 45.0536 58.1865 40.0741C57.8523 39.342 56.9136 38.5599 56.1417 38.4187C54.3363 38.0887 52.4633 38.1049 50.6157 38.0347C48.2988 37.9468 46.1795 38.6602 44.3233 39.9834C41.0898 42.2883 38.9899 45.5304 37.0694 49.2156Z" fill="#4ED4E1"/>
</svg>
